<?xml version="1.0" encoding="UTF-8" standalone="no"?>
<svg
   xmlns:dc="http://purl.org/dc/elements/1.1/"
   xmlns:cc="http://creativecommons.org/ns#"
   xmlns:rdf="http://www.w3.org/1999/02/22-rdf-syntax-ns#"
   xmlns:svg="http://www.w3.org/2000/svg"
   xmlns="http://www.w3.org/2000/svg"
   xmlns:xlink="http://www.w3.org/1999/xlink"
   xmlns:sodipodi="http://sodipodi.sourceforge.net/DTD/sodipodi-0.dtd"
   xmlns:inkscape="http://www.inkscape.org/namespaces/inkscape"
   width="617.57611"
   height="580.78436"
   id="svg2"
   version="1.1"
   inkscape:version="1.0.2-2 (e86c870879, 2021-01-15)"
   sodipodi:docname="dolphin.svg"
   inkscape:export-filename="/home/kostas/Desktop/dolphins.png"
   inkscape:export-xdpi="90"
   inkscape:export-ydpi="90">
  <defs
     id="defs4">
    <linearGradient
       inkscape:collect="always"
       id="linearGradient4220">
      <stop
         style="stop-color:#40556a;stop-opacity:1"
         offset="0"
         id="stop4222" />
      <stop
         style="stop-color:#6a8095;stop-opacity:1"
         offset="1"
         id="stop4224" />
    </linearGradient>
    <linearGradient
       id="linearGradient4204">
      <stop
         style="stop-color:#404055;stop-opacity:1"
         offset="0"
         id="stop4206" />
      <stop
         style="stop-color:#6a8095;stop-opacity:1"
         offset="1"
         id="stop4208" />
    </linearGradient>
    <linearGradient
       id="linearGradient4027">
      <stop
         style="stop-color:#80aaea;stop-opacity:1;"
         offset="0"
         id="stop4029" />
      <stop
         style="stop-color:#6a8095;stop-opacity:1"
         offset="1"
         id="stop4031" />
    </linearGradient>
    <linearGradient
       inkscape:collect="always"
       id="linearGradient4007">
      <stop
         style="stop-color:#ffffff;stop-opacity:1;"
         offset="0"
         id="stop4009" />
      <stop
         style="stop-color:#ffffff;stop-opacity:0;"
         offset="1"
         id="stop4011" />
    </linearGradient>
    <filter
       inkscape:collect="always"
       id="filter4100"
       x="-0.046411127"
       width="1.0928223"
       y="-0.2138733"
       height="1.4277467"
       color-interpolation-filters="sRGB">
      <feGaussianBlur
         inkscape:collect="always"
         stdDeviation="2.4981509"
         id="feGaussianBlur4102" />
    </filter>
    <filter
       inkscape:collect="always"
       id="filter4120"
       color-interpolation-filters="sRGB">
      <feGaussianBlur
         inkscape:collect="always"
         stdDeviation="0.81762432"
         id="feGaussianBlur4122" />
    </filter>
    <filter
       inkscape:collect="always"
       id="filter4164"
       x="-0.0452508"
       width="1.0905015"
       y="-0.24253216"
       height="1.4850643"
       color-interpolation-filters="sRGB">
      <feGaussianBlur
         inkscape:collect="always"
         stdDeviation="4.0013203"
         id="feGaussianBlur4166" />
    </filter>
    <filter
       inkscape:collect="always"
       id="filter4182"
       color-interpolation-filters="sRGB">
      <feGaussianBlur
         inkscape:collect="always"
         stdDeviation="4.1393507"
         id="feGaussianBlur4184" />
    </filter>
    <filter
       inkscape:collect="always"
       id="filter4260"
       x="-0.13699067"
       width="1.2739813"
       y="-0.43597135"
       height="1.8719428"
       color-interpolation-filters="sRGB">
      <feGaussianBlur
         inkscape:collect="always"
         stdDeviation="1.8273993"
         id="feGaussianBlur4262" />
    </filter>
    <filter
       inkscape:collect="always"
       id="filter4290"
       color-interpolation-filters="sRGB">
      <feGaussianBlur
         inkscape:collect="always"
         stdDeviation="1.3921092"
         id="feGaussianBlur4292" />
    </filter>
    <filter
       inkscape:collect="always"
       id="filter4367"
       x="-0.62975526"
       width="2.2595105"
       y="-1.0001992"
       height="3.0003984"
       color-interpolation-filters="sRGB">
      <feGaussianBlur
         inkscape:collect="always"
         stdDeviation="3.5783376"
         id="feGaussianBlur4369" />
    </filter>
    <filter
       inkscape:collect="always"
       id="filter4381"
       color-interpolation-filters="sRGB">
      <feGaussianBlur
         inkscape:collect="always"
         stdDeviation="3.2151689"
         id="feGaussianBlur4383" />
    </filter>
    <filter
       inkscape:collect="always"
       id="filter4405"
       color-interpolation-filters="sRGB">
      <feGaussianBlur
         inkscape:collect="always"
         stdDeviation="0.32781301"
         id="feGaussianBlur4407" />
    </filter>
    <clipPath
       clipPathUnits="userSpaceOnUse"
       id="clipPath4635">
      <path
         sodipodi:nodetypes="ccccccsssasssacccssssscsasc"
         inkscape:connector-curvature="0"
         id="path4637"
         d="m -347.9302,119.63536 c 46.8454,14.97701 45.4954,41.45018 41.4285,68.57143 11.6452,5.93114 18.5768,12.22486 17.8572,19.10714 13.6453,22.56352 -20.8131,25.61169 -36.0715,24.10714 -26.9361,1.46326 -51.3321,5.81304 -67.8571,19.10715 31.0071,54.43501 -4.9523,114.96745 -33.21429,120.17857 -4.3237,1.32919 -8.55985,-5.63606 -6.39694,-15.84254 3.80246,-17.94324 -2.86245,-42.54056 -19.25833,-58.76681 -4.26019,-4.21612 4.57511,-5.9545 8.0078,-16.24343 0.40543,-1.21522 0.24692,-2.75055 -0.74538,-3.25437 -1.2569,-0.63817 -2.1301,-0.15453 -3.88508,1.67019 -26.65482,27.71414 -202.89753,99.8812 -253.54839,149.08961 -31.39808,30.50391 -53.76023,91.50127 -61.64062,116.45931 -1.65527,5.2424 -1.6649,5.5768 -1.10449,8.3166 0.48557,2.3739 3.70958,6.2514 3.70958,6.2514 84.15268,39.581 90.3441,104.0925 75.92585,95.1951 -79.94512,-47.8655 -134.99012,-28.5267 -199.814,11.4999 -7.81126,4.2571 -8.3715,-2.9233 -8.37497,-6.4461 -0.0507,-51.5039 62.92987,-92.6501 88.74119,-101.4521 8.23445,-2.8081 5.33527,-4.5031 5.1695,-7.5482 -9.02239,-165.7348 81.65988,-300.58845 99.64285,-318.57142 13.44342,-13.44342 28.25873,-41.00015 21.42858,-52.85714 -4.69891,-8.1572 -29.18615,-6.06987 4.64285,-27.85715 15.35381,-8.66094 31.25719,-7.37058 50.22773,-1.00814 2.2729,0.7623 5.70004,2.69458 8.70085,2.43672 2.10059,-0.1805 4.64819,-2.17473 5.71037,-2.71979 83.27022,-42.73017 167.21994,-61.078704 260.71824,-29.42307 z"
         style="fill:#6a8095;stroke:none" />
    </clipPath>
    <filter
       inkscape:collect="always"
       id="filter4677">
      <feGaussianBlur
         inkscape:collect="always"
         stdDeviation="1.189512"
         id="feGaussianBlur4679" />
    </filter>
    <filter
       inkscape:collect="always"
       id="filter4681">
      <feGaussianBlur
         inkscape:collect="always"
         stdDeviation="1.4868901"
         id="feGaussianBlur4683" />
    </filter>
    <filter
       inkscape:collect="always"
       id="filter3898"
       x="-0.071989836"
       width="1.1439797"
       y="-0.14682337"
       height="1.2936467">
      <feGaussianBlur
         inkscape:collect="always"
         stdDeviation="0.48859232"
         id="feGaussianBlur3900" />
    </filter>
    <filter
       inkscape:collect="always"
       id="filter3906"
       x="-0.28823989"
       width="1.5764798"
       y="-0.28133534"
       height="1.5626707">
      <feGaussianBlur
         inkscape:collect="always"
         stdDeviation="15.93629"
         id="feGaussianBlur3908" />
    </filter>
    <filter
       inkscape:collect="always"
       id="filter3918"
       x="-0.3005619"
       width="1.6011238"
       y="-0.32041159"
       height="1.6408232">
      <feGaussianBlur
         inkscape:collect="always"
         stdDeviation="13.551015"
         id="feGaussianBlur3920" />
    </filter>
    <filter
       inkscape:collect="always"
       id="filter3930">
      <feGaussianBlur
         inkscape:collect="always"
         stdDeviation="2.7651284"
         id="feGaussianBlur3932" />
    </filter>
    <filter
       inkscape:collect="always"
       id="filter3949"
       x="-0.15046225"
       width="1.3009245"
       y="-0.16550848"
       height="1.331017">
      <feGaussianBlur
         inkscape:collect="always"
         stdDeviation="2.0898604"
         id="feGaussianBlur3951" />
    </filter>
    <filter
       inkscape:collect="always"
       id="filter3969"
       x="-0.28768284"
       width="1.5753657"
       y="-0.32472748"
       height="1.649455">
      <feGaussianBlur
         inkscape:collect="always"
         stdDeviation="25.068357"
         id="feGaussianBlur3971" />
    </filter>
    <filter
       inkscape:collect="always"
       id="filter3993"
       x="-0.25109318"
       width="1.5021864"
       y="-0.080604186"
       height="1.1612084">
      <feGaussianBlur
         inkscape:collect="always"
         stdDeviation="5.9419483"
         id="feGaussianBlur3995" />
    </filter>
    <radialGradient
       inkscape:collect="always"
       xlink:href="#linearGradient4204"
       id="radialGradient4029"
       gradientUnits="userSpaceOnUse"
       gradientTransform="matrix(0.8294175,-0.51192653,0.32351592,0.52415676,-178.61609,-123.97723)"
       cx="-505.03577"
       cy="285.8154"
       fx="-505.03577"
       fy="285.8154"
       r="61.566895" />
    <radialGradient
       inkscape:collect="always"
       xlink:href="#linearGradient4220"
       id="radialGradient4031"
       gradientUnits="userSpaceOnUse"
       gradientTransform="matrix(1,0,0,0.2170029,0,134.22205)"
       cx="-401.74811"
       cy="171.42088"
       fx="-401.74811"
       fy="171.42088"
       r="64.591858" />
    <radialGradient
       inkscape:collect="always"
       xlink:href="#linearGradient4220"
       id="radialGradient4033"
       gradientUnits="userSpaceOnUse"
       gradientTransform="matrix(1,0,0,0.49776254,0,110.93659)"
       cx="-376.27582"
       cy="220.88474"
       fx="-376.27582"
       fy="220.88474"
       r="90.842865" />
    <radialGradient
       inkscape:collect="always"
       xlink:href="#linearGradient4027"
       id="radialGradient4035"
       gradientUnits="userSpaceOnUse"
       gradientTransform="matrix(1,0,0,0.69229635,0,48.678864)"
       cx="-424.69492"
       cy="151.63438"
       fx="-424.69492"
       fy="151.63438"
       r="12.47729" />
    <radialGradient
       inkscape:collect="always"
       xlink:href="#linearGradient4204"
       id="radialGradient4039"
       gradientUnits="userSpaceOnUse"
       gradientTransform="matrix(0.80203853,1.2766461,-1.5870978,0.99707604,428.86761,688.92163)"
       cx="-587.41528"
       cy="359.08658"
       fx="-587.41528"
       fy="359.08658"
       r="84.548302" />
    <radialGradient
       inkscape:collect="always"
       xlink:href="#linearGradient4204"
       id="radialGradient4041"
       gradientUnits="userSpaceOnUse"
       gradientTransform="matrix(1.6885808,0.04610075,-0.02387008,0.87431477,290.96553,39.198295)"
       cx="-417.47787"
       cy="159.70287"
       fx="-417.47787"
       fy="159.70287"
       r="10.943525" />
    <radialGradient
       inkscape:collect="always"
       xlink:href="#linearGradient4204"
       id="radialGradient4043"
       gradientUnits="userSpaceOnUse"
       gradientTransform="matrix(1.7154364,1.1484638,-0.91597009,1.3681653,572.05555,367.07955)"
       cx="-422.96481"
       cy="294.17023"
       fx="-422.96481"
       fy="294.17023"
       r="37.938877" />
    <radialGradient
       inkscape:collect="always"
       xlink:href="#linearGradient4220"
       id="radialGradient4045"
       gradientUnits="userSpaceOnUse"
       gradientTransform="matrix(1,0,0,3.1151381,0,-969.87304)"
       cx="-737.74091"
       cy="458.53885"
       fx="-737.74091"
       fy="458.53885"
       r="28.397181" />
    <radialGradient
       inkscape:collect="always"
       xlink:href="#linearGradient4220"
       id="radialGradient4047"
       gradientUnits="userSpaceOnUse"
       gradientTransform="matrix(1.4619063,0.02886914,-0.00918611,0.46517612,353.31925,352.81975)"
       cx="-752.39642"
       cy="629.49731"
       fx="-752.39642"
       fy="629.49731"
       r="98.96875" />
    <radialGradient
       inkscape:collect="always"
       xlink:href="#linearGradient4027"
       id="radialGradient4049"
       gradientUnits="userSpaceOnUse"
       gradientTransform="matrix(1,0,0,0.88592084,0,32.02642)"
       cx="-618.03113"
       cy="280.73859"
       fx="-618.03113"
       fy="280.73859"
       r="104.56664" />
    <radialGradient
       inkscape:collect="always"
       xlink:href="#linearGradient4027"
       id="radialGradient4051"
       gradientUnits="userSpaceOnUse"
       gradientTransform="matrix(1,0,0,0.69544934,0,59.176493)"
       cx="-469.6853"
       cy="194.30756"
       fx="-469.6853"
       fy="194.30756"
       r="30.279053" />
    <radialGradient
       inkscape:collect="always"
       xlink:href="#linearGradient4027"
       id="radialGradient4055"
       gradientUnits="userSpaceOnUse"
       gradientTransform="matrix(1,0,0,0.6228355,0,55.99015)"
       cx="-375.24103"
       cy="148.45021"
       fx="-375.24103"
       fy="148.45021"
       r="29.315254" />
    <radialGradient
       inkscape:collect="always"
       xlink:href="#linearGradient4007"
       id="radialGradient4058"
       gradientUnits="userSpaceOnUse"
       gradientTransform="matrix(1,0,0,0.31421944,0,101.49283)"
       cx="-379.87302"
       cy="147.99606"
       fx="-379.87302"
       fy="147.99606"
       r="16.007507" />
    <radialGradient
       inkscape:collect="always"
       xlink:href="#linearGradient4220"
       id="radialGradient4060"
       gradientUnits="userSpaceOnUse"
       gradientTransform="matrix(1,0,0,1.0245421,0,-6.0828822)"
       cx="-641.92535"
       cy="247.85526"
       fx="-641.92535"
       fy="247.85526"
       r="66.345947" />
    <radialGradient
       inkscape:collect="always"
       xlink:href="#linearGradient4220"
       id="radialGradient4062"
       gradientUnits="userSpaceOnUse"
       gradientTransform="matrix(1,0,0,0.18657648,0,100.31731)"
       cx="-490.73325"
       cy="123.32728"
       fx="-490.73325"
       fy="123.32728"
       r="106.11049" />
    <linearGradient
       inkscape:collect="always"
       xlink:href="#linearGradient4220"
       id="linearGradient4064"
       gradientUnits="userSpaceOnUse"
       gradientTransform="translate(-2.5253814,-3.535534)"
       x1="-630.21289"
       y1="280.36929"
       x2="-480.9852"
       y2="280.36929" />
    <radialGradient
       inkscape:collect="always"
       xlink:href="#linearGradient4027"
       id="radialGradient4066"
       gradientUnits="userSpaceOnUse"
       gradientTransform="matrix(1.2915586,-0.14606821,0.11446464,1.2394933,75.92752,-108.90282)"
       cx="-329.4689"
       cy="221.60651"
       fx="-329.4689"
       fy="221.60651"
       r="33.875" />
    <radialGradient
       inkscape:collect="always"
       xlink:href="#linearGradient4220"
       id="radialGradient4068"
       gradientUnits="userSpaceOnUse"
       gradientTransform="matrix(1,0,0,0.29442372,0,134.90688)"
       cx="-344.67972"
       cy="191.20099"
       fx="-344.67972"
       fy="191.20099"
       r="56.098301" />
    <radialGradient
       inkscape:collect="always"
       xlink:href="#linearGradient4204"
       id="radialGradient4070"
       gradientUnits="userSpaceOnUse"
       gradientTransform="matrix(0.66481079,-0.22365751,0.58577687,1.7411925,-742.23957,172.5435)"
       cx="561.13971"
       cy="62.576107"
       fx="561.13971"
       fy="62.576107"
       r="16.667521" />
    <radialGradient
       inkscape:collect="always"
       xlink:href="#linearGradient4220"
       id="radialGradient4084"
       gradientUnits="userSpaceOnUse"
       gradientTransform="matrix(0.76819008,-0.64022184,1.2653868,1.5183137,-256.58625,-274.7331)"
       cx="-302.67953"
       cy="149.31573"
       fx="-302.67953"
       fy="149.31573"
       r="30.734375" />
    <radialGradient
       inkscape:collect="always"
       xlink:href="#linearGradient4204"
       id="radialGradient4096"
       gradientUnits="userSpaceOnUse"
       gradientTransform="matrix(1.194803,0,0,0.73796745,82.146385,42.837261)"
       cx="-430.16568"
       cy="163.67131"
       fx="-430.16568"
       fy="163.67131"
       r="11.175716" />
    <radialGradient
       inkscape:collect="always"
       xlink:href="#linearGradient4220"
       id="radialGradient4103"
       gradientUnits="userSpaceOnUse"
       gradientTransform="matrix(1,0,0,0.78387302,0,72.392868)"
       cx="-530.4967"
       cy="373.22678"
       fx="-530.4967"
       fy="373.22678"
       r="125.67532" />
    <filter
       inkscape:collect="always"
       id="filter4130"
       x="-0.049631065"
       width="1.0992621"
       y="-0.16464832"
       height="1.3292966">
      <feGaussianBlur
         inkscape:collect="always"
         stdDeviation="2.320182"
         id="feGaussianBlur4132" />
    </filter>
    <filter
       inkscape:collect="always"
       id="filter4146"
       x="-0.43535691"
       width="1.8707138"
       y="-0.62600808"
       height="2.2520162">
      <feGaussianBlur
         inkscape:collect="always"
         stdDeviation="10.985162"
         id="feGaussianBlur4148" />
    </filter>
    <filter
       inkscape:collect="always"
       id="filter4150"
       x="-0.32286138"
       width="1.6457228"
       y="-0.52411639"
       height="2.0482328">
      <feGaussianBlur
         inkscape:collect="always"
         stdDeviation="3.4638122"
         id="feGaussianBlur4152" />
    </filter>
    <filter
       inkscape:collect="always"
       id="filter4162"
       x="-0.45796968"
       width="1.9159394"
       y="-0.73529797"
       height="2.4705959">
      <feGaussianBlur
         inkscape:collect="always"
         stdDeviation="11.187915"
         id="feGaussianBlur4164" />
    </filter>
    <filter
       inkscape:collect="always"
       id="filter4170"
       x="-0.32082258"
       width="1.6416452"
       y="-0.83349416"
       height="2.6669883">
      <feGaussianBlur
         inkscape:collect="always"
         stdDeviation="9.9473395"
         id="feGaussianBlur4172" />
    </filter>
    <clipPath
       clipPathUnits="userSpaceOnUse"
       id="clipPath4069-4">
      <path
         style="fill:url(#radialGradient4073);fill-opacity:1;stroke:none;display:inline"
         d="m 109.5625,833.1122 c -1.03239,0.078 -2.02563,0.3907 -2.96875,1.0625 -5.69002,4.0527 3.40033,6.3934 6.3125,11.4375 2.78593,4.8254 0.49636,12.7915 -2.34375,15.2187 -27.089645,23.1516 -52.22017,66.7521 -68.5,110.5313 -0.55829,1.5013 -1.03701,3.3032 -2.40625,4.0937 -1.26642,0.7312 -3.47641,0.3208 -5.5625,0.625 -25.0438503,3.6518 -38.02665,20.9765 -29.03125,21.6875 39.55611,-3.7012 64.06958,27.2967 64.625,16.8125 3.15942,-2.0903 -10.41845,-19.0252 -18.1875,-32.375 -0.65167,-1.1198 -1.70938,-2.0374 -1.8125,-3.2812 -0.15419,-1.8592 1.15797,-3.4587 1.875,-5.2813 7.24927,-18.4264 24.639335,-42.8282 75.90625,-53.6562 18.20456,-3.845 31.03555,-4.9746 43.5625,-4.1563 -0.69481,3.4714 -2.68961,7.7136 -7.90625,13.25 -17.82364,11.7646 22.84417,19.4998 28.15625,-10.4062 14.09334,3.3106 38.6875,16.5937 38.6875,16.5937 3.94883,2.4871 5.69284,3.8504 9.40625,6.4688 4.63173,3.2658 12.0455,4.0656 12.71875,0.8437 1.60327,-7.6726 -8.23454,-13.5719 -7.9375,-18.4375 0.55008,-9.0107 -1.90673,-13.1137 -7.59375,-23.2187 -17.14032,-30.4559 -62.96353,-44.3724 -89.53125,-48.0938 -4.47651,-0.627 -8.83281,-5.2703 -13.65625,-10.0937 -3.32569,-3.3257 -10.28043,-7.6046 -18.625,-9 -1.66451,-0.2784 -3.46685,-0.7545 -5.1875,-0.625 z"
         id="path4071-63"
         inkscape:connector-curvature="0" />
    </clipPath>
    <linearGradient
       id="linearGradient3880-2-1-8-97">
      <stop
         id="stop3882-6-2-8-49"
         offset="0"
         style="stop-color:#8095bf;stop-opacity:1" />
      <stop
         style="stop-color:#8095bf;stop-opacity:1"
         offset="0.21764448"
         id="stop3884-0-9-9-1" />
      <stop
         style="stop-color:#555580;stop-opacity:1"
         offset="0.86469483"
         id="stop3886-0-3-2-7" />
      <stop
         id="stop3888-0-9-8-06"
         offset="1"
         style="stop-color:#555580;stop-opacity:1" />
    </linearGradient>
    <linearGradient
       id="linearGradient4110-8-1-3-63">
      <stop
         style="stop-color:#6a6a95;stop-opacity:1"
         offset="0"
         id="stop4112-2-0-3-3" />
      <stop
         id="stop4114-5-3-3-44"
         offset="1"
         style="stop-color:#2b2b40;stop-opacity:1" />
    </linearGradient>
    <linearGradient
       id="linearGradient4622-7-1-2-85">
      <stop
         style="stop-color:#8095bf;stop-opacity:1"
         offset="0"
         id="stop4624-3-7-8-10" />
      <stop
         id="stop4626-1-8-3-8"
         offset="0.21764448"
         style="stop-color:#8095bf;stop-opacity:1" />
      <stop
         id="stop4628-3-5-0-7"
         offset="0.41499126"
         style="stop-color:#555580;stop-opacity:1" />
      <stop
         style="stop-color:#555580;stop-opacity:1"
         offset="1"
         id="stop4630-2-7-1-6" />
    </linearGradient>
    <linearGradient
       id="linearGradient4651-8-1-0-1">
      <stop
         style="stop-color:#8095bf;stop-opacity:1"
         offset="0"
         id="stop4653-5-8-4-5" />
      <stop
         id="stop4655-4-9-1-0"
         offset="0.21764448"
         style="stop-color:#8095bf;stop-opacity:1" />
      <stop
         id="stop4657-4-6-0-83"
         offset="0.42065391"
         style="stop-color:#555580;stop-opacity:1" />
      <stop
         style="stop-color:#555580;stop-opacity:1"
         offset="1"
         id="stop4659-7-4-4-5" />
    </linearGradient>
    <inkscape:path-effect
       effect="spiro"
       id="path-effect4835-0-2-6-7"
       is_visible="true" />
  </defs>
  <sodipodi:namedview
     id="base"
     pagecolor="#ffffff"
     bordercolor="#666666"
     borderopacity="1.0"
     inkscape:pageopacity="0.0"
     inkscape:pageshadow="2"
     inkscape:zoom="0.7"
     inkscape:cx="327.90057"
     inkscape:cy="323.04065"
     inkscape:document-units="px"
     inkscape:current-layer="layer2"
     showgrid="false"
     inkscape:window-width="1920"
     inkscape:window-height="1017"
     inkscape:window-x="-8"
     inkscape:window-y="-8"
     inkscape:window-maximized="1"
     fit-margin-top="0"
     fit-margin-left="0"
     fit-margin-right="0"
     fit-margin-bottom="0"
     inkscape:document-rotation="0" />
  <metadata
     id="metadata7">
    <rdf:RDF>
      <cc:Work
         rdf:about="">
        <dc:format>image/svg+xml</dc:format>
        <dc:type
           rdf:resource="http://purl.org/dc/dcmitype/StillImage" />
        <dc:title />
      </cc:Work>
    </rdf:RDF>
  </metadata>
  <g
     inkscape:label="Layer 1"
     inkscape:groupmode="layer"
     id="layer1"
     transform="translate(894.42953,-93.926388)">
    <g
       id="g4449"
       transform="translate(-1.5902394,8.3191221)"
       clip-path="url(#clipPath4635)">
      <g
         id="g5259">
        <path
           style="fill:#6a8095;stroke:none"
           d="m -347.85714,119.50504 c 46.84545,14.97701 45.49549,41.45018 41.42857,68.57143 11.64513,5.93114 18.57674,12.22486 17.85714,19.10714 13.64531,22.56352 -20.81311,25.61169 -36.07143,24.10714 -26.93614,1.46326 -51.33214,5.81304 -67.85714,19.10715 31.00711,54.43501 -4.95228,114.96745 -33.21429,120.17857 -4.3237,1.32919 -8.55985,-5.63606 -6.39694,-15.84254 3.80246,-17.94324 -2.86245,-42.54056 -19.25833,-58.76681 -4.26019,-4.21612 4.57511,-5.9545 8.0078,-16.24343 0.40543,-1.21522 0.24692,-2.75055 -0.74538,-3.25437 -1.2569,-0.63817 -2.1301,-0.15453 -3.88508,1.67019 -26.65482,27.71414 -202.89753,99.8812 -253.54839,149.08961 -31.39808,30.50391 -53.76023,91.50127 -61.64062,116.4593 -1.65527,5.24241 -1.6649,5.5768 -1.10449,8.31662 0.48557,2.37392 3.70958,6.25142 3.70958,6.25142 84.15268,39.58098 90.3441,104.09248 75.92585,95.19509 -79.94512,-47.8655 -134.99012,-28.52672 -199.814,11.49992 -7.81126,4.25702 -8.3715,-2.92335 -8.37497,-6.44618 -0.0507,-51.50384 62.92987,-92.65005 88.74119,-101.45208 8.23445,-2.80807 5.33527,-4.50311 5.1695,-7.54817 -9.02239,-165.73481 81.65988,-300.58846 99.64285,-318.57143 13.44342,-13.44342 28.25873,-41.00015 21.42858,-52.85714 -4.69891,-8.1572 -29.18615,-6.06987 4.64285,-27.85715 15.35381,-8.66094 31.25719,-7.37058 50.22773,-1.00814 2.2729,0.7623 5.70004,2.69458 8.70085,2.43672 2.10059,-0.1805 4.64819,-2.17473 5.71037,-2.71979 83.27022,-42.73017 167.21994,-61.078701 260.7182,-29.42307 z"
           id="path2983"
           inkscape:connector-curvature="0"
           sodipodi:nodetypes="ccccccsssasssacccssssscsasc" />
        <path
           style="fill:url(#radialGradient4103);fill-opacity:1;fill-rule:nonzero;stroke:none"
           d="m -531.39418,236.45299 c -24.70502,-0.3837 -37.11014,9.12395 -48.32457,19.26576 -36.19403,32.7322 -62.35079,71.52626 -93.28125,112.8125 -23.48568,31.34888 -35.85499,56.38118 -34.5,64.9375 1.94597,-2.20006 3.94634,-4.28519 5.96875,-6.25 46.91295,-45.57695 201.53245,-110.84429 245.28125,-142.25 -9.72245,-30.11532 -50.43917,-48.13207 -75.14418,-48.51576 z"
           id="path3886"
           inkscape:connector-curvature="0"
           sodipodi:nodetypes="csscscc" />
        <path
           style="opacity:0.607759;fill:url(#radialGradient4029);fill-opacity:1;stroke:none;filter:url(#filter3918)"
           d="m -437.9375,208.625 c -4.26331,1.02254 -8.76022,2.43327 -13.40625,4.28125 0.27007,0.0108 0.5398,0.0312 0.8125,0.0312 0.41954,0 0.83647,-0.006 1.25,-0.0312 0.30821,-0.0185 0.6017,-0.0617 0.90625,-0.0937 0.43975,-0.0462 0.8811,-0.0826 1.3125,-0.15625 0.0941,-0.0161 0.18754,-0.0452 0.28125,-0.0625 0.46856,-0.0867 0.94887,-0.1945 1.40625,-0.3125 0.0521,-0.0134 0.10434,-0.0174 0.15625,-0.0312 0.49213,-0.1311 0.95985,-0.30271 1.4375,-0.46875 0.50896,-0.17721 1.00909,-0.34728 1.5,-0.5625 0.0214,-0.009 0.0411,-0.0218 0.0625,-0.0312 0.28926,-0.12798 0.59251,-0.26554 0.875,-0.40625 0.21558,-0.10755 0.44479,-0.22896 0.65625,-0.34375 0.096,-0.0521 0.18608,-0.1027 0.28125,-0.15625 0.38585,-0.21701 0.75406,-0.44692 1.125,-0.6875 0.0242,-0.0157 0.0384,-0.0467 0.0625,-0.0625 0.36667,-0.24042 0.74275,-0.48746 1.09375,-0.75 0.0656,-0.0491 0.12244,-0.10643 0.1875,-0.15625 z m -25.40625,9.8125 c -6.15713,3.20071 -12.43773,7.02635 -18.65625,11.4375 0.15972,2.61252 -1.32467,6.33235 -5.3125,11.5625 -12.84628,11.83671 -24.44308,22.29453 -35.28125,31.59375 -0.0109,0.009 -0.0204,0.022 -0.0312,0.0312 -6.42557,12.08126 -7.80443,22.9161 -2.65625,29.84375 4.98365,6.70624 15.2128,8.58728 28.03125,6.28125 23.75598,-12.71608 42.01874,-23.54386 49.25,-31.0625 1.75498,-1.82472 2.64935,-2.29442 3.90625,-1.65625 0.10392,0.0528 0.19583,0.145 0.28125,0.21875 l 23.59375,-12.21875 c -1.1713,0.24911 -2.33774,0.45986 -3.5,0.65625 -0.0796,0.0191 -0.34943,0.0906 -0.375,0.0937 -0.31422,0.0515 -0.62397,0.0777 -0.9375,0.125 -0.40878,0.0617 -0.81117,0.13302 -1.21875,0.1875 -0.16601,0.0222 -0.3342,0.0415 -0.5,0.0625 -0.49119,0.0623 -0.9794,0.10491 -1.46875,0.15625 -0.0627,0.007 -0.12485,0.0249 -0.1875,0.0312 -0.29291,0.0299 -0.58277,0.0367 -0.875,0.0625 -0.17655,0.0156 -0.35495,0.0485 -0.53125,0.0625 -0.0416,0.003 -0.0834,-0.003 -0.125,0 -0.20703,0.0161 -0.41831,0.0485 -0.625,0.0625 -0.54157,0.0367 -1.08588,0.072 -1.625,0.0937 -0.7925,0.0318 -1.58796,0.0329 -2.375,0.0312 -0.0835,-1.3e-4 -0.16657,5.2e-4 -0.25,0 -0.70363,-0.005 -1.3947,0.002 -2.09375,-0.0312 -0.70336,-0.0326 -1.39522,-0.0939 -2.09375,-0.15625 -0.0739,-0.007 -0.14488,-0.0243 -0.21875,-0.0312 -0.61457,-0.0577 -1.23306,-0.10577 -1.84375,-0.1875 -0.0627,-0.008 -0.12487,-0.0226 -0.1875,-0.0312 -0.55516,-0.0766 -1.1044,-0.18401 -1.65625,-0.28125 -0.11427,-0.0202 -0.22962,-0.0414 -0.34375,-0.0625 -0.32468,-0.0599 -0.64525,-0.12027 -0.96875,-0.1875 -0.52898,-0.11018 -1.068,-0.21344 -1.59375,-0.34375 -0.19861,-0.0492 -0.3956,-0.10407 -0.59375,-0.15625 -0.64054,-0.16857 -1.27071,-0.36268 -1.90625,-0.5625 -0.29817,-0.0937 -0.6092,-0.18046 -0.90625,-0.28125 -0.16697,-0.0567 -0.33338,-0.12852 -0.5,-0.1875 -0.50132,-0.17725 -1.00196,-0.3645 -1.5,-0.5625 -0.66228,-0.26329 -1.31242,-0.54273 -1.96875,-0.84375 -0.58456,-0.26819 -1.17032,-0.5448 -1.75,-0.84375 -0.72159,-0.37214 -1.44244,-0.76624 -2.15625,-1.1875 -8.91821,-5.26313 -11.08106,-19.31443 -9.59375,-29.5625 0.076,-0.52356 0.1572,-1.04287 0.25,-1.5625 0.0261,-0.14554 0.0664,-0.29225 0.0937,-0.4375 0.0707,-0.37581 0.13953,-0.75127 0.21875,-1.125 0.19794,-0.93384 0.4379,-1.86054 0.6875,-2.78125 0.0625,-0.23001 0.12187,-0.45832 0.1875,-0.6875 0.2247,-0.7867 0.4896,-1.56688 0.75,-2.34375 0.0484,-0.14407 0.0754,-0.29378 0.125,-0.4375 0.32091,-0.93222 0.66177,-1.86348 1.03125,-2.78125 z"
           id="path3870"
           inkscape:connector-curvature="0" />
        <path
           style="fill:url(#radialGradient4031);fill-opacity:1;stroke:none;filter:url(#filter4100)"
           d="m -405.9375,157.40625 c -3.90334,0.0161 -7.78379,0.10495 -11.625,0.28125 4.76678,0.9404 6.21875,4.20112 6.21875,6.5625 0,2.91916 -3.31038,5.28125 -9.84375,5.28125 -6.53337,0 -10.84375,-1.83084 -10.84375,-4.75 0,-2.27231 2.42025,-5.22541 6.5625,-6.59375 -0.9834,0.0879 -1.95669,0.18997 -2.9375,0.3125 -0.75484,0.59128 -1.53728,1.21486 -2.4375,1.90625 -3.2842,2.52235 -4.08353,7.12675 -3.90625,6.34375 0.0459,-0.20287 0.14198,-1.18088 0.34375,-2.53125 0.0909,-0.5943 0.20404,-1.28174 0.34375,-2 0.0153,-0.0794 0.0465,-0.16947 0.0625,-0.25 0.10151,-0.50509 0.21381,-1.02565 0.34375,-1.5625 0.0883,-0.36682 0.1779,-0.71962 0.28125,-1.09375 -2.09489,0.43098 -4.16098,0.96635 -6.1875,1.65625 -5.03083,1.71268 -11.58113,3.28087 -15.4375,6.9375 -1.91992,1.82048 -10.21739,14.62653 -11.25,17.0625 -0.0968,0.22837 -0.11188,0.38832 -0.0625,0.46875 9.55558,-5.16626 21.74434,-10.94569 26.5625,-10.3125 4.81816,0.63319 6.72356,3.05935 8.09375,5.8125 5.52385,-4.92519 18.00026,-10.50766 22.90625,-11.625 7.26733,-1.65513 16.59248,0.41739 24.5,2.65625 3.79551,1.07463 7.63819,2.32275 11.25,4 0.64427,0.0214 1.31474,0.0487 1.96875,0.0625 0.93222,0.0191 1.85483,0.0312 2.8125,0.0312 0.21279,2e-5 0.41082,10e-4 0.625,0 0.2719,-9.6e-4 0.53828,-0.0285 0.8125,-0.0312 1.39313,-0.0155 2.81923,-0.0579 4.28125,-0.125 0.66749,-0.0306 1.3473,-0.0508 2.03125,-0.0937 0.20497,-0.0127 0.41842,-0.0173 0.625,-0.0312 0.90141,-0.0614 1.81713,-0.13375 2.75,-0.21875 4.06163,-0.37007 8.17882,-0.52028 12.28125,-0.375 0.50745,0.018 1.02422,0.0354 1.53125,0.0625 0.24999,0.0134 0.50019,0.0469 0.75,0.0625 1.79763,0.11225 3.59353,0.26469 5.375,0.5 -0.59709,-0.4971 -1.46016,-1.13703 -2.6875,-2 -3.87797,-2.73064 -17.83789,-10.05602 -26.21875,-12.15625 -12.88572,-3.22915 -26.50595,-4.305 -39.875,-4.25 z"
           id="path3824"
           inkscape:connector-curvature="0" />
        <path
           style="fill:url(#radialGradient4033);fill-opacity:1;stroke:none;filter:url(#filter4381)"
           d="m -437.25,173.84375 c -0.1584,0.22359 -0.32114,0.44725 -0.5,0.65625 -9.22712,10.78185 -19.20772,19.64978 -31.34375,27.09375 2.13639,3.9928 5.44683,7.20927 9.4375,9.1875 -3.50322,6.2324 -6.02075,12.84978 -7.03125,19.8125 -1.48731,10.24807 0.67554,24.29937 9.59375,29.5625 11.45286,6.75896 23.91243,7.08057 36.90625,4.3125 l 28.5625,-14.75 c 16.50435,-12.75485 40.5053,-16.99992 66.96875,-18.4375 15.25832,1.50455 49.73906,-1.53023 36.09375,-24.09375 0.21789,-3.12627 -0.54484,-0.10768 -2.25,-0.0937 -1.64811,-0.0174 -4.44296,-0.03 -7.9375,0.0312 -15.31386,-2.07723 -17.38662,5.07374 -34.125,-4.71875 -23.46067,-10.89938 -50.6709,-27.40872 -66.40625,-26.71875 -0.51115,0.0224 -1.00101,0.0857 -1.5,0.125 -9.9247,0.78095 -29.78125,2.25 -29.78125,2.25 0,0 -1.20939,1.01633 -1.8125,1.53125 -1.28975,-2.19729 -2.95059,-4.14585 -4.875,-5.75 z m -17.34375,38.6875 c 0.30782,0.0619 0.62508,0.1083 0.9375,0.15625 -0.31327,-0.0489 -0.62893,-0.0931 -0.9375,-0.15625 z m 2.5625,0.34375 c 0.49078,0.0352 1.00056,0.0625 1.5,0.0625 -0.50583,0 -1.00347,-0.0257 -1.5,-0.0625 z"
           id="path3809"
           inkscape:connector-curvature="0" />
        <path
           style="fill:url(#radialGradient4035);fill-opacity:1;fill-rule:nonzero;stroke:none;filter:url(#filter4150)"
           d="m -422.40625,149.5625 c -1.99073,0.002 -4.01477,0.42276 -5.90625,1.46875 -5.43586,3.00603 -6.26022,14.93575 -6.4375,15.71875 -0.17728,0.783 0.62205,-3.8214 3.90625,-6.34375 5.71343,-4.38805 7.21065,-6.89755 20.84375,-5.78125 1.37584,0.11266 -5.29649,-5.06898 -12.40625,-5.0625 z"
           id="path3840"
           inkscape:connector-curvature="0"
           transform="matrix(1.0905543,0.1007627,-0.08006366,0.8665286,50.906798,63.666908)" />
        <path
           style="fill:url(#radialGradient4096);fill-opacity:1;fill-rule:nonzero;stroke:none"
           d="m -409.34502,164.40451 c 0,3.48782 -3.92227,6.31527 -11.72836,6.31527 -7.80609,0 -12.9607,-2.18738 -12.9607,-5.6752 0,-3.48783 4.73872,-8.35805 12.53399,-8.76888 9.51022,-0.50121 12.15507,4.64098 12.15507,8.12881 z"
           id="path4409"
           inkscape:connector-curvature="0"
           sodipodi:nodetypes="sssss" />
        <path
           transform="matrix(1.4632971,0,0,1.6537257,280.45394,-200.76887)"
           sodipodi:nodetypes="ccscc"
           inkscape:connector-curvature="0"
           id="path4176"
           d="m -527.4244,272.81821 c -51.43668,47.39438 -40.60348,43.4801 -84.05807,59.86459 -27.59407,12.69556 -21.70003,-0.1889 8.93426,-31.59858 24.03787,-24.6463 24.19764,-24.08562 50.68548,-38.36568 18.20454,-7.07786 37.61387,-8.02055 24.43833,10.09967 z"
           style="fill:url(#radialGradient4039);fill-opacity:1;fill-rule:nonzero;stroke:none;filter:url(#filter4182)" />
        <path
           style="fill:#6a8095;fill-opacity:1;fill-rule:nonzero;stroke:none;filter:url(#filter4677)"
           d="m -503.37158,225.66726 c 7.26057,-1.90215 32.1427,-5.30769 16.06973,15.77246 -51.43668,47.39438 -82.74633,72.83829 -126.20092,89.22278 -27.59407,12.69556 -21.70003,-0.1889 8.93426,-31.59858 24.03787,-24.6463 54.95011,-46.1138 81.43795,-60.39386 5.77816,-3.11511 8.60185,-10.07981 19.75898,-13.0028 z"
           id="path3756"
           inkscape:connector-curvature="0"
           sodipodi:nodetypes="sccsss" />
        <path
           sodipodi:nodetypes="sssss"
           inkscape:connector-curvature="0"
           id="path3768"
           d="m -411.35771,164.2539 c 0,2.91916 -3.28277,5.28561 -9.81614,5.28561 -6.53337,0 -10.84757,-1.83074 -10.84757,-4.7499 0,-2.91917 3.96611,-6.99534 10.49043,-7.33919 7.95965,-0.41949 10.17328,3.88431 10.17328,6.80348 z"
           style="fill:url(#radialGradient4041);fill-opacity:1;fill-rule:nonzero;stroke:none;filter:url(#filter4405)"
           transform="matrix(0.97052416,0,0,0.97052416,-12.429653,4.8187303)" />
        <path
           style="fill:#150015;fill-opacity:1;fill-rule:nonzero;stroke:none;filter:url(#filter3898)"
           d="m -414.03628,164.24869 c 0,2.1967 -2.47032,3.97747 -7.38674,3.97747 -4.91642,0 -8.90197,-1.78077 -8.90197,-3.97747 0,-2.1967 3.99236,-3.71873 8.90197,-3.97748 5.98971,-0.31567 7.38674,1.78078 7.38674,3.97748 z"
           id="path3765"
           inkscape:connector-curvature="0"
           sodipodi:nodetypes="sssss"
           transform="matrix(1.0895723,0,0,1.0895723,37.81567,-14.710707)" />
        <path
           style="fill:url(#radialGradient4043);fill-opacity:1;fill-rule:nonzero;stroke:none;filter:url(#filter4120)"
           d="m -391.625,249.71875 -52.1875,26.96875 c 0.71993,0.63691 0.79781,1.95126 0.4375,3.03125 -3.43269,10.28893 -12.26019,12.03388 -8,16.25 16.39588,16.22625 23.05246,40.80676 19.25,58.75 -2.16291,10.20648 2.08255,17.17294 6.40625,15.84375 28.26201,-5.21112 64.22586,-65.72124 33.21875,-120.15625 0.28999,-0.23329 0.58019,-0.45968 0.875,-0.6875 z"
           id="rect3781"
           inkscape:connector-curvature="0" />
        <path
           style="fill:url(#radialGradient4045);fill-opacity:1;fill-rule:nonzero;stroke:none;filter:url(#filter3993)"
           d="m -737.84375,439.5 c -8.94252,30.11867 -34.70228,107.5 -26.8125,107.5 0.14834,0 0.32425,-0.0436 0.5,-0.0937 0.22693,-0.82948 0.53687,-1.85095 0.96875,-3.21875 7.20978,-22.83415 26.56068,-75.81575 53.84375,-108.03125 -0.45163,-33.61721 -11.32636,-84.30057 -18.2327,-58.52574 -5.45323,20.35171 -0.29951,28.79767 -10.2673,62.36949 z"
           id="path3787"
           inkscape:connector-curvature="0"
           sodipodi:nodetypes="sscscss" />
        <path
           style="fill:url(#radialGradient4047);fill-opacity:1;fill-rule:nonzero;stroke:none;filter:url(#filter3930)"
           d="m -785.65625,573.03125 c -45.60812,0 -97.33883,44.65625 -99.1875,92.09375 0.12897,-0.066 0.24185,-0.11494 0.375,-0.1875 64.20864,-39.64675 118.8412,-58.99556 197.5625,-12.84375 -0.71839,-47.82954 -52.62798,-79.0625 -98.75,-79.0625 z"
           id="path3793"
           inkscape:connector-curvature="0" />
        <path
           sodipodi:nodetypes="sccsas"
           inkscape:connector-curvature="0"
           id="path3799"
           d="m -543.21239,193.55035 c 10.27083,-4.40989 56.23893,-16.90768 8.3338,22.01276 -174.86526,115.36949 -64.39158,70.85601 -162.14749,147.29139 -37.86125,24.89911 -31.95777,4.43409 6.35807,-48.98999 30.06539,-41.9204 66.8064,-72.19443 106.86902,-100.05822 12.41308,-8.63337 24.8037,-13.47934 40.5866,-20.25594 z"
           style="fill:url(#radialGradient4049);fill-opacity:1;fill-rule:nonzero;stroke:none;filter:url(#filter3969)" />
        <path
           style="fill:url(#radialGradient4051);fill-opacity:1;fill-rule:nonzero;stroke:none;filter:url(#filter4146)"
           d="m -439.40625,173.25 c -5.90178,1.42902 -20.94243,8.72487 -30.78125,14.3125 -6.78082,3.85094 -14.70111,6.89086 -19.34375,13.15625 -2.66346,3.59443 -19.42148,20.09133 -3.96875,12.8125 24.33465,-9.39383 39.67656,-23.08062 54.09375,-40.28125 z"
           id="path3803"
           inkscape:connector-curvature="0" />
        <path
           style="fill:url(#radialGradient4084);fill-opacity:1;stroke:none"
           d="m -363.21875,114.75 c 0.25713,1.59632 2.1641,12.9898 5.0625,18.28125 4.46178,8.1456 14.8328,11.88158 18.59375,20.40625 3.00379,6.80848 2.07779,14.834 2.28125,22.375 3.99714,0.52116 7.92787,1.36076 11.75,2.59375 6.73021,2.17111 12.97244,5.74789 19.09375,9.5625 4.05609,-27.089 5.38605,-53.50873 -41.40625,-68.46875 -5.14865,-1.74318 -10.28277,-3.30581 -15.375,-4.75 z m 57.6875,73.78125 c 1.25052,0.78495 2.50652,1.58567 3.75,2.375 0.0132,-0.0936 0.0181,-0.18763 0.0312,-0.28125 -1.18893,-0.70112 -2.45856,-1.40292 -3.78125,-2.09375 z"
           id="path3770"
           inkscape:connector-curvature="0" />
        <path
           style="fill:url(#radialGradient4055);fill-opacity:1;fill-rule:nonzero;stroke:none;filter:url(#filter4162)"
           d="m -345.92579,160.42085 c 0,13.19326 -6.34197,2.13312 -24.65206,-1.7428 -17.44558,-3.69291 -33.97845,4.25334 -33.97845,-8.9399 0,-13.19326 19.68673,-24.43582 37.33554,-17.36031 15.54427,6.23178 21.29497,14.84976 21.29497,28.04301 z"
           id="path3862"
           inkscape:connector-curvature="0"
           sodipodi:nodetypes="sssss" />
        <path
           sodipodi:nodetypes="aasaa"
           inkscape:connector-curvature="0"
           id="path3865"
           d="m -363.90619,149.73394 c -0.72422,4.71193 -8.967,3.0253 -13.58986,2.88466 -6.33274,-0.19266 -19.03698,-0.88375 -18.35832,-5.07651 0.5555,-3.43185 13.96914,-5.41919 21.01109,-4.22935 4.13965,0.69946 11.59397,2.14742 10.93709,6.4212 z"
           style="fill:url(#radialGradient4058);fill-opacity:1;fill-rule:nonzero;stroke:none;filter:url(#filter4260)" />
        <path
           style="fill:url(#radialGradient4060);fill-opacity:1;fill-rule:nonzero;stroke:none;filter:url(#filter3906)"
           d="m -599.49359,190.81001 c 7.54332,-5.28887 42.61846,-25.5366 10.76682,7.80982 -66.80774,45.90006 -149.47064,166.58828 -108.71527,95.07609 16.81411,-29.20063 41.1659,-54.97622 68.65371,-80.64811 8.51688,-7.95423 17.70314,-14.1105 29.29474,-22.2378 z"
           id="path3879"
           inkscape:connector-curvature="0"
           sodipodi:nodetypes="sccas" />
        <path
           style="fill:url(#radialGradient4062);fill-opacity:1;fill-rule:nonzero;stroke:none;filter:url(#filter4164)"
           d="m -441.25,103.53125 c -53.61151,-0.18611 -104.80241,14.98413 -155.59375,39.59375 27.69653,-9.57573 125.60772,-40.457 174.11161,-14.80804 11.70682,6.1906 49.78083,-14.1576 34.57589,-19.56696 -17.99725,-3.48889 -35.67487,-5.15828 -53.09375,-5.21875 z"
           id="path3881"
           inkscape:connector-curvature="0"
           sodipodi:nodetypes="scscs" />
        <path
           style="opacity:0.771552;fill:#ffffff;fill-opacity:1;fill-rule:nonzero;stroke:none;filter:url(#filter4367)"
           d="m -309.10667,203.58151 c 0,2.37104 -3.05276,4.29315 -6.81853,4.29315 -3.76577,0 -6.81853,-1.92211 -6.81853,-4.29315 0,-2.37104 3.05276,-4.29315 6.81853,-4.29315 3.76577,0 6.81853,1.92211 6.81853,4.29315 z"
           id="path4332"
           inkscape:connector-curvature="0"
           transform="matrix(0.42908499,0,0,0.32307326,-176.83091,133.76916)" />
        <path
           transform="matrix(0.42720309,0,0,0.23348569,-208.48764,133.57225)"
           inkscape:connector-curvature="0"
           id="path4371"
           d="m -309.10667,203.58151 c 0,2.37104 -3.05276,4.29315 -6.81853,4.29315 -3.76577,0 -6.81853,-1.92211 -6.81853,-4.29315 0,-2.37104 3.05276,-4.29315 6.81853,-4.29315 3.76577,0 6.81853,1.92211 6.81853,4.29315 z"
           style="opacity:0.771552;fill:#ffffff;fill-opacity:1;fill-rule:nonzero;stroke:none;filter:url(#filter4367)" />
        <path
           sodipodi:nodetypes="sccsss"
           inkscape:connector-curvature="0"
           id="path4639"
           d="m -504.88682,222.63678 c 7.26057,-1.90215 32.1427,-5.30769 16.06973,15.77246 -51.43668,47.39438 -82.74633,72.83829 -126.20092,89.22278 -27.59407,12.69556 -21.70003,-0.1889 8.93426,-31.59858 24.03787,-24.6463 54.95011,-46.1138 81.43795,-60.39386 5.77816,-3.11511 8.60185,-10.07981 19.75898,-13.0028 z"
           style="fill:url(#linearGradient4064);fill-opacity:1;fill-rule:nonzero;stroke:none;filter:url(#filter4681)" />
        <path
           style="fill:url(#radialGradient4066);fill-opacity:1;fill-rule:nonzero;stroke:none;filter:url(#filter4170)"
           d="m -358.65625,192.59375 c -0.6213,1.43592 0.71371,4.1752 -0.96875,5.6875 -15.82694,14.22625 -2.46902,22.95531 29.56408,22.95531 14.18556,0 32.4637,-3.21058 38.18592,-11.89281 -1.1795,-0.88391 -2.59004,-1.8789 -4.59375,-1.84375 -5.29773,-0.7186 -6.9778,-0.93761 -11,1.59375 -5.36476,3.3763 -6.64242,5.52143 -24.15625,-3.15625 -8.76057,-4.06999 -18.0187,-8.89578 -27.03125,-13.34375 z"
           id="path4294"
           inkscape:connector-curvature="0"
           transform="matrix(1,0,0,0.90363436,0,18.559421)"
           sodipodi:nodetypes="cssccscc" />
        <path
           sodipodi:nodetypes="cscscsssscc"
           inkscape:connector-curvature="0"
           id="path4272"
           d="m -399.51535,179.33787 c 7.70822,-0.94272 4.24315,3.69347 14.1535,2.45301 13.28447,-1.66279 31.59789,9.22188 43.74336,14.86444 17.51383,8.67768 22.46246,14.5417 27.82722,11.1654 4.0222,-2.53136 7.21552,-2.30614 12.51325,-1.58754 3.49454,-0.0613 10.08994,4.36352 11.73805,4.38092 5.59751,0.0591 -0.36542,-9.55584 -7.03452,-13.69326 -8.92014,-5.53394 -17.7906,-11.80328 -27.6832,-14.99455 -10.0873,-3.25408 -21.01311,-3.8027 -31.56857,-2.84096 -14.92597,1.35995 -25.63572,-0.43975 -38.17892,-0.86545 l -5.51017,1.11799"
           style="fill:#404055;fill-opacity:1;stroke:none;filter:url(#filter4130)" />
        <path
           style="fill:url(#radialGradient4068);fill-opacity:1;stroke:none;filter:url(#filter4290)"
           d="m -400.77802,175.80231 c 15.45996,-1.89077 43.67409,15.34972 67.89686,26.60316 17.51383,8.67768 18.77591,6.51868 24.14067,3.14238 4.0222,-2.53136 5.70029,-2.30614 10.99802,-1.58754 3.49454,-0.0613 5.29172,3.10083 6.93983,3.11823 5.59751,0.0591 -0.36542,-9.55584 -7.03452,-13.69326 -8.92014,-5.53394 -17.7906,-11.80328 -27.6832,-14.99455 -10.0873,-3.25408 -21.01311,-3.8027 -31.56857,-2.84096 -14.92597,1.35995 -25.63572,-0.43975 -38.17892,-0.86545 l -5.51017,1.11799"
           id="path3759"
           inkscape:connector-curvature="0"
           sodipodi:nodetypes="ccscsssscc" />
        <path
           transform="rotate(-9.8381513,-349.59803,155.03864)"
           inkscape:connector-curvature="0"
           id="path3934"
           d="m -315.86468,155.99743 c 0,8.36838 -7.46231,15.15229 -16.66752,15.15229 -9.20522,0 -16.66752,-6.78391 -16.66752,-15.15229 0,-8.36838 7.4623,-15.15229 16.66752,-15.15229 9.20521,0 16.66752,6.78391 16.66752,15.15229 z"
           style="color:#000000;display:inline;overflow:visible;visibility:visible;opacity:0.293023;fill:url(#radialGradient4070);fill-opacity:1;stroke:none;stroke-width:1.60656;marker:none;filter:url(#filter3949);enable-background:accumulate" />
      </g>
    </g>
    <g
       inkscape:groupmode="layer"
       id="layer2"
       inkscape:label="sss" />
  </g>
</svg>
