<?xml version="1.0" encoding="UTF-8" standalone="no"?>
<!-- Generator: Adobe Illustrator 12.0.0, SVG Export Plug-In . SVG Version: 6.00 Build 51448)  -->

<svg
   xmlns:dc="http://purl.org/dc/elements/1.1/"
   xmlns:cc="http://creativecommons.org/ns#"
   xmlns:rdf="http://www.w3.org/1999/02/22-rdf-syntax-ns#"
   xmlns:svg="http://www.w3.org/2000/svg"
   xmlns="http://www.w3.org/2000/svg"
   xmlns:sodipodi="http://sodipodi.sourceforge.net/DTD/sodipodi-0.dtd"
   xmlns:inkscape="http://www.inkscape.org/namespaces/inkscape"
   height="326.34998"
   id="Layer_1"
   inkscape:version="0.48.5 r10040"
   sodipodi:docname="elephant_realistic.svg"
   sodipodi:version="0.32"
   space="preserve"
   style="overflow:visible"
   version="1.1"
   viewBox="0 0 419.9878 326.34996"
   width="419.98779">
  <title
     id="title3240">elephant realistic</title>
  <metadata
     id="metadata3">
    <rdf:RDF>
      <cc:Work
         rdf:about="">
        <dc:title>elephant realistic</dc:title>
        <dc:description />
        <dc:subject>
          <rdf:Bag>
            <rdf:li>mammal</rdf:li>
          </rdf:Bag>
        </dc:subject>
        <dc:publisher>
          <cc:Agent
             rdf:about="http://www.openclipart.org/">
            <dc:title>Open Clip Art Library</dc:title>
          </cc:Agent>
        </dc:publisher>
        <dc:creator>
          <cc:Agent>
            <dc:title>Architetto Francesco Rollandin</dc:title>
          </cc:Agent>
        </dc:creator>
        <dc:rights>
          <cc:Agent>
            <dc:title>pd</dc:title>
          </cc:Agent>
        </dc:rights>
        <dc:date>12/04/2014</dc:date>
        <dc:format>image/svg+xml</dc:format>
        <dc:type
           rdf:resource="http://purl.org/dc/dcmitype/StillImage" />
        <cc:license
           rdf:resource="http://creativecommons.org/licenses/publicdomain/" />
        <dc:language>en</dc:language>
        <dc:contributor>
          <cc:Agent>
            <dc:title>Paul Sherman, wpclipart</dc:title>
          </cc:Agent>
        </dc:contributor>
      </cc:Work>
      <cc:License
         rdf:about="http://creativecommons.org/licenses/publicdomain/">
        <cc:permits
           rdf:resource="http://creativecommons.org/ns#Reproduction" />
        <cc:permits
           rdf:resource="http://creativecommons.org/ns#Distribution" />
        <cc:permits
           rdf:resource="http://creativecommons.org/ns#DerivativeWorks" />
      </cc:License>
    </rdf:RDF>
  </metadata>
  <defs
     id="defs260" />
  <sodipodi:namedview
     bordercolor="#666666"
     borderopacity="1.0"
     id="base"
     inkscape:current-layer="Layer_1"
     inkscape:cx="32.112488"
     inkscape:cy="163.15344"
     inkscape:pageopacity="0.0"
     inkscape:pageshadow="2"
     inkscape:window-height="964"
     inkscape:window-width="982"
     inkscape:window-x="87"
     inkscape:window-y="0"
     inkscape:zoom="0.97968464"
     pagecolor="#ffffff"
     showgrid="false"
     fit-margin-top="4"
     fit-margin-left="4"
     fit-margin-right="4"
     fit-margin-bottom="4"
     inkscape:window-maximized="0" />
  <g
     id="g3110"
     transform="translate(3.9988068,4.0470503)">
    <path
       style="fill-rule:evenodd"
       id="path3"
       d="m 201.499,37.096 c 3.269,13.324 1.213,28.751 2.742,42.51 -3.811,-1.492 -6.742,0.307 -9.599,2.742 -0.686,-2.286 -1.372,-4.571 -2.057,-6.856 -4.165,2.083 -7.383,3.88 -10.906,6.9 -4.379,3.753 -6.056,-0.402 -9.235,5.957 -1.549,3.097 -5.811,4.948 -8.999,5.656 -5.503,1.223 -3.633,6.033 -7.199,9.599 -4.763,4.761 -10.478,14.291 -12.706,20.977 -1.816,5.449 -2.895,1.387 -4.435,1.649 -2.745,0.468 -9.061,2.117 -10.97,1.372 1.005,-0.797 1.786,-1.885 2.742,-2.743 -3.287,0.708 -7.877,4.656 -10.284,2.057 5.284,-2.466 9.575,-3.989 13.395,-8.354 4.922,-5.625 -7.039,-2.455 -9.988,-2.145 -9.541,1.004 -18.575,5.194 -23.976,13.242 -1.371,-2.057 -2.743,-4.114 -4.114,-6.171 -5.714,10.285 -15.57,19.084 -18.377,30.313 -3.434,13.736 -7.851,26.827 -12.82,40.081 -4.406,11.748 -8.74,23.366 -12.709,35.27 -1.189,3.568 -4.989,11.511 -2.717,14.323 5.626,6.964 6.938,-3.813 8.228,-4.457 3.717,-1.858 9.209,2.671 12.62,2.292 8.295,-0.92 9.788,2.844 3.15,7.65 -7.622,5.52 -23.439,13.897 -33.253,10.627 -26.565,-8.853 -11.648,-40.477 -5.346,-59.384 6.205,-18.614 0.505,-38.557 3.631,-57.518 -8.085,6.22 -16.918,13.257 -26.867,16.099 -2.723,0.778 -9.108,3.466 -11.186,1.385 -1.944,-1.947 7.478,-6.811 9.192,-8.035 17.75,-12.675 31.578,-27.988 39.146,-48.53 -2.816,-0.32 -4.93,-4.362 -7.059,-3.936 -3.374,0.674 -2.994,3.355 -4.597,3.936 -0.184,0.067 -10.204,2.137 -10.627,1.714 -3.038,-3.038 4.227,-29.783 5.828,-33.939 4.438,-11.521 13.72,-20.51 18.741,-31.667 2.849,-6.332 4.728,-12.002 10.099,-16.478 3.912,-3.259 9.39,-2.771 12.527,-6.605 9.813,-11.995 18.101,-9.73 31.908,-12.24 13.266,-2.412 22.85,-6.923 36.256,-1.896 4.826,1.81 8.932,9.139 13.713,12.127 5.495,3.434 11.154,5.683 17.194,7.948 8.872,3.328 25.266,4.035 28.914,14.528"
       inkscape:connector-curvature="0" />
    <path
       style="fill:#b29e8b;fill-rule:evenodd;stroke:#000000;stroke-width:0;stroke-linecap:square;stroke-miterlimit:10"
       id="path5"
       d="m 143.219,77.549 c 5.975,-6.762 17.833,-12.599 10.285,-23.998 -4.378,-6.612 -19.27,-13.006 -18.512,-21.255 2.333,1.902 5.051,2.984 8.228,4.799 -1.386,-0.791 -5.584,-4.126 -4.799,-6.17 1.1,-2.867 4.492,-0.014 7.06,-1.041 8.757,-3.504 13.569,1.727 21.907,1.727 23.46,0 18.84,16.768 19.714,34.282 0.399,7.997 0.152,16.455 -10.589,16.455 -5.892,0 -4.173,10.285 -12.85,10.285 -6.698,0 -5.031,16.26 -12.292,5.37 -4.089,-6.132 -8.945,-12.777 -8.152,-20.454"
       inkscape:connector-curvature="0" />
    <path
       style="fill-rule:evenodd"
       id="path7"
       d="m 46.543,111.831 c 5.418,0.452 9.864,1.52 15.084,2.742 -2.661,-2.794 -11.974,-4.385 -15.084,-2.742"
       inkscape:connector-curvature="0" />
    <path
       style="fill-rule:evenodd"
       id="path9"
       d="m 44.486,115.945 c 3.198,0.291 6.386,0.695 9.599,0.686 -2.627,-2.045 -6.837,-1.963 -9.599,-0.686"
       inkscape:connector-curvature="0" />
    <path
       style="fill-rule:evenodd"
       id="path11"
       d="m 42.43,123.487 c 1.183,-0.449 3.942,0.28 6.17,0.686 -1.81,0.691 -4.022,0.143 -6.17,-0.686"
       inkscape:connector-curvature="0" />
    <path
       style="fill-rule:evenodd"
       id="path13"
       d="m 43.115,119.373 c 2.782,-0.975 6.646,-0.783 8.228,1.371 -2.589,-0.605 -6.6,-0.812 -8.228,-1.371"
       inkscape:connector-curvature="0" />
    <path
       style="fill:#ababab;fill-rule:evenodd;stroke:#000000;stroke-width:0;stroke-linecap:square;stroke-miterlimit:10"
       id="path15"
       d="m 104.823,113.888 c -2.482,2.095 -4.989,4.163 -7.542,6.17 1.542,-4.109 1.934,-14.398 -6.17,-14.398 -6.587,0 -9.024,8.881 -12.342,12.342 -0.569,-4.397 2.093,-11.159 4.8,-13.713 -2.112,1.22 -3.567,3.325 -4.8,5.486 -0.06,-3.372 5.098,-8.418 2.743,-8.914 4.078,-3.341 3.193,-8.537 2.742,-13.028 -3.093,6.811 -6.657,16.373 -7.542,23.998 -0.369,3.181 0.997,6.484 0.686,9.599 -0.272,2.728 -1.743,6.377 -3.085,9.599 -7.197,17.271 -20.972,27.929 -35.311,39.081 0,-12.302 -0.151,-24.16 1.963,-36.316 2.328,-13.381 7.842,-24.637 12.114,-37.454 4.189,-12.569 4.052,-25.66 1.221,-38.396 -0.725,-3.259 4.155,-10.042 4.763,-13.687 1.185,-7.106 3.256,-10.783 7.721,-16.466 7.145,-9.094 14.34,-21.549 27.069,-21.549 5.746,0 11.56,-0.654 17.141,-2.057 5.419,-1.362 12.813,-5.116 18.54,-3.971 7.334,1.467 11.535,3.202 17.158,8.2 4.531,4.027 8.302,8.022 14.139,10.357 11.046,4.419 28.697,6.352 37.24,14.896 6.216,6.217 3.429,16.348 3.429,24.168 0,5.529 0.771,10.537 1.193,16.031 0.587,7.638 -3.311,2.667 -7.364,7.796 -2.2,-8.802 -1.372,-15.989 -1.372,-24.937 0,-8.749 3.749,-16.207 -4.799,-22.373 -6.392,-4.611 -14.575,-2.899 -22.039,-4.256 -9.467,-1.722 -11.971,-9.595 -20.814,-12.542 -4.764,-1.588 -17.357,8.913 -16.798,14.056 0.696,6.405 13.668,12.791 17.827,17.141 5.892,6.165 8.948,11.601 4.267,19.401 -2.099,3.498 -4.754,5.15 -8.038,7.338 -1.417,0.944 -1.268,3.429 -2.4,4.114 -0.214,0.13 -4.986,-0.674 -5.485,-0.686 16.802,16.552 -22.203,28.114 -30.855,34.97"
       inkscape:connector-curvature="0" />
    <path
       style="fill-rule:evenodd"
       id="path17"
       d="m 267.319,206.449 c 8.568,-1.353 17.731,-1.862 26.131,-3.962 8.802,-2.2 3.591,1.528 9.903,3.632 4.933,1.644 5.808,6.748 8.018,11.338 4.447,9.236 10.114,15.141 10.114,25.541 0,8.798 -1.809,18.023 -5.079,26.201 -2.343,5.855 -10.635,17.762 -8.633,23.642 2.063,6.063 13.415,6.989 18.684,7.648 1.974,0.247 3.898,0.684 5.872,0.401 2.067,-0.296 4.729,-2.444 6.298,-2.565 3.476,-0.268 6.081,1.759 10.665,-0.533 7.307,-3.653 8.327,-12.313 5.104,-19.35 9.438,-0.523 22.847,-1.866 19.884,-13.713 -1.303,-5.206 -2.743,-9.49 -2.743,-14.912 0,-4.3 -4.686,-7.829 -7.007,-11.079 -2.686,-3.762 -2.913,-11.067 -3.607,-15.58 -0.765,-4.969 3.26,-9.422 4.241,-14.322 2.37,-11.849 8.864,-23.047 13.915,-33.926 3.486,9.586 7.053,19.121 10.285,28.797 2.023,6.057 4.73,18.693 12.342,19.883 -0.686,-0.686 -1.372,-1.371 -2.058,-2.057 2.083,0.326 4.072,1.63 5.485,3.429 0,-0.686 0,-1.371 0,-2.057 2.482,0.755 4.386,2.288 6.856,2.742 -1.402,-2.274 -1.609,-2.306 -1.372,-4.114 -4.344,-1.092 -17.141,-16.117 -17.968,-20.667 -2.114,-11.624 -6.715,-23.106 -6.715,-34.997 0,-13.416 4.163,-25.74 4.729,-39.299 0.53,-12.702 -0.476,-20.059 -5.071,-31.879 -3.869,-9.952 -5.645,-23.814 -13.37,-31.54 -6.814,-6.814 -22.418,-16.455 -32.353,-16.455 -12.146,0 -25.368,2.396 -37.24,-0.343 -12.094,-2.791 -23.641,-7.145 -35.311,-11.313 0.001,57.136 0.001,114.272 0.001,171.409"
       inkscape:connector-curvature="0" />
    <path
       style="fill-rule:evenodd"
       id="path19"
       d="m 267.319,206.449 c 0,-45.419 0,-90.837 0,-136.256 0,-9.572 0,-19.144 0,-28.716 0,-7.205 0.019,-7.144 -8.228,-8.495 -19.604,-3.212 -38.296,2.736 -57.593,4.114 3.269,13.324 1.213,28.751 2.742,42.51 -3.811,-1.492 -6.742,0.307 -9.599,2.742 -0.686,-2.286 -1.372,-4.571 -2.057,-6.856 -4.165,2.083 -7.383,3.88 -10.906,6.9 -4.379,3.753 -6.056,-0.402 -9.235,5.957 -1.549,3.097 -5.811,4.948 -8.999,5.656 -5.503,1.223 -3.633,6.033 -7.199,9.599 -4.763,4.761 -10.478,14.291 -12.706,20.977 -1.816,5.449 -2.895,1.387 -4.435,1.649 -2.745,0.468 -9.061,2.117 -10.97,1.372 1.005,-0.797 1.786,-1.885 2.742,-2.743 -3.287,0.708 -7.877,4.656 -10.284,2.057 5.284,-2.466 9.575,-3.989 13.395,-8.354 5.068,-5.792 -8.451,-2.307 -11.464,-1.99 -2.577,0.271 -12.774,3.032 -14.958,4.173 -4.206,2.198 -7.192,11.91 -11.656,2.743 2.672,9.084 7.011,17.021 6.34,26.419 -0.719,10.063 1.099,20.054 0.274,29.957 -1.399,16.812 1.739,33.354 7.441,48.184 1.001,2.604 6.316,10.337 5.399,12.171 -2.182,4.364 -4.367,8.483 -3.685,13.541 1.194,8.854 7.03,14.393 4.799,23.312 -1.569,6.275 -10.89,11.633 -5.528,17.891 1.495,1.745 2.582,3.829 4.842,4.394 1.546,0.386 4.3,-0.248 5.485,1.027 1.973,2.123 0.165,5.7 2.057,8.228 -8.77,6.468 11.087,8.496 13.37,9.257 7.589,2.529 25.151,-6.7 32.239,-9.536 11.878,-4.752 4.833,-16.917 1.37,-25.572 -3.742,-9.351 -4.447,-21.361 -6.679,-31.03 -1.844,-7.991 -2.032,-8.106 3.292,-14.249 3.983,-4.597 8.147,-8.997 12.317,-13.428 4.844,-5.147 15.261,-24.732 21.225,-22.743 21.485,7.158 44.586,9.068 66.852,5.138"
       inkscape:connector-curvature="0" />
    <path
       style="fill-rule:evenodd"
       id="path21"
       d="m 137.048,6.928 c -3.056,5.553 -9.78,8.313 -10.627,15.084 -0.249,1.985 0.535,7.789 -1.029,8.571 -1.217,0.609 -6.622,1.321 -7.567,0.14 -6.169,-7.711 14.801,-29.728 19.223,-23.795"
       inkscape:connector-curvature="0" />
    <path
       style="fill:#838383;fill-rule:evenodd;stroke:#000000;stroke-width:0;stroke-linecap:square;stroke-miterlimit:10"
       id="path23"
       d="m 135.677,7.613 c -4.35,3.976 -10.176,9.71 -10.97,15.77 -0.359,2.739 1.757,9.868 -4.114,6.856 -8.224,-4.218 8.679,-25.254 15.084,-22.626"
       inkscape:connector-curvature="0" />
    <path
       style="fill:#b29e8b;fill-rule:evenodd;stroke:#000000;stroke-width:0;stroke-linecap:square;stroke-miterlimit:10"
       id="path25"
       d="m 152.132,21.326 c 1.74,1.947 3.38,3.981 4.799,6.171 -6.229,0 -11.105,2.118 -16.862,1.478 -3.227,-0.358 -6.718,3.219 -6.45,6.064 -8.333,-5.426 7.04,-14.511 12.342,-14.398 -1.855,-0.314 -3.418,-0.821 -5.485,-0.686 4.32,-2.192 7.557,-0.268 11.656,1.371"
       inkscape:connector-curvature="0" />
    <path
       style="fill:#ababab;fill-rule:evenodd;stroke:#000000;stroke-width:0;stroke-linecap:square;stroke-miterlimit:10"
       id="path27"
       d="m 62.313,30.24 c -4.571,1.142 -7.21,9.95 -8.913,13.713 -3.059,6.761 -6.649,13.298 -9.98,19.959 -6.716,13.433 -7.161,25.552 -7.161,39.691 -2.669,-1.534 -8.257,1.165 -8.913,0.685 -2.714,-1.986 0.755,-8.743 1.371,-10.97 2.792,-10.101 2.836,-19.19 8.125,-28.447 4.376,-7.658 11.426,-15.596 14.755,-23.585 3.91,-9.385 7.06,-16.604 17.572,-19.274 -1.648,3.128 -4.496,5.605 -6.856,8.228"
       inkscape:connector-curvature="0" />
    <path
       style="fill:#b29e8b;fill-rule:evenodd;stroke:#000000;stroke-width:0;stroke-linecap:square;stroke-miterlimit:10"
       id="path29"
       d="m 187.785,34.354 c 7.815,6.698 6.265,10.436 5.537,19.909 -0.378,4.922 1.516,21.321 -4.165,21.229 0.833,-8.173 -1.255,-16.939 -0.724,-25.446 0.534,-8.542 -2.378,-14.91 -10.247,-18.435 3.291,0.731 6.531,1.297 9.599,2.743"
       inkscape:connector-curvature="0" />
    <path
       style="fill-rule:evenodd"
       id="path31"
       d="m 142.533,35.725 c 2.705,-0.151 5.086,1.414 6.856,3.428 -3.554,-1.307 -7.607,-3.356 -9.599,-6.856 1.371,0.626 1.777,2.011 2.743,3.428"
       inkscape:connector-curvature="0" />
    <path
       style="fill:#ababab;fill-rule:evenodd"
       id="path33"
       d="m 386.622,101.546 c -5.942,8.17 -12.34,13.708 -16.761,22.55 -4.531,9.062 -8.235,18.423 -13.485,27.173 -4.484,7.476 -10.043,16.048 -16.759,21.682 -4.137,3.469 -24.65,15.825 -21.56,22.528 5.614,-9.28 14.977,-15.44 23.373,-22.038 8.032,-6.311 13.989,-15.392 20.508,-23.214 0.229,0.229 0.457,0.457 0.686,0.686 -9.766,12.109 -17.816,21.754 -30.256,30.969 -13.07,9.682 -14.635,18.473 -10.824,33.714 6.63,26.521 -1.276,52.61 -13.086,75.188 4.445,0.985 7.67,-0.657 10.971,4.114 -0.014,-5.692 1.457,-14.47 7.542,-16.455 -1.269,0.935 -2.268,2.351 -3.429,3.427 0.457,0 0.915,0 1.372,0 -1.188,3.568 -6.552,9.771 -4.114,14.399 1.363,-8.827 13.505,-3.817 16.456,1.371 -0.235,-3.484 -0.652,-6.323 2.057,-8.913 0,0.686 0,1.371 0,2.057 2.144,-0.005 0.84,2.02 0.686,4.8 1.688,-5.138 9.208,-7.521 13.713,-4.8 -0.091,-5.701 0.284,-10.353 -2.742,-16.455 0.255,-0.06 2.057,-28.477 2.057,-33.427 0,-12.723 10.898,-23.531 11.655,-35.823 -1.094,0.579 -3.198,1.298 -4.113,2.057 6.32,-3.06 10.185,-15.025 12.547,-21.1 3.857,-9.918 7.402,-19.886 10.899,-29.938 5.659,-16.275 9.839,-38.276 2.607,-54.552"
       inkscape:connector-curvature="0" />
    <path
       style="fill:#838383;fill-rule:evenodd;stroke:#000000;stroke-width:0;stroke-linecap:square;stroke-miterlimit:10"
       id="path35"
       d="m 120.593,126.915 c 3.491,0.059 12.775,-4.15 14.398,-7.542 3.394,-7.089 -4.252,-4.056 -8.914,-3.428 0.686,-0.686 1.372,-1.371 2.057,-2.057 -3.464,-0.212 -5.451,2.492 -9.599,4.114 -4.698,1.838 -10.791,2.065 -15.771,2.057 1.363,0.381 1.714,1.134 3.429,1.372 -0.856,2.666 -2.597,2.654 -4.8,0.686 0.472,0.845 0.422,1.605 2.057,3.428 -2.395,0.551 -3.898,2.274 -4.114,4.799 -4.756,-10.333 9.771,-17.289 17.141,-21.941 9.494,-5.992 19.592,-9.68 28.796,-15.77 4.687,5.708 -8.188,9.136 -10.284,12.342 2.856,-0.872 12.639,-7.438 13.713,-5.828 0.768,1.151 5.481,4.446 5.485,4.457 1.166,3.806 -2.989,5.711 -4.799,8.228 -3.031,4.213 -4,11.542 -7.542,15.083 0.459,-0.459 -11.644,0.616 -13.027,0.686 1.223,-0.79 2.204,-1.956 3.428,-2.743 -3.854,0.288 -8.163,3.146 -11.654,2.057"
       inkscape:connector-curvature="0" />
    <path
       style="fill-rule:evenodd"
       id="path37"
       d="m 165.845,37.782 c -14.429,7.656 -4.921,17.642 0.686,26.74 -5.308,-3.834 -10.283,-11.618 -10.971,-16.455 -0.716,-5.033 8.123,-14.742 10.285,-10.285"
       inkscape:connector-curvature="0" />
    <path
       style="fill:#b29e8b;fill-rule:evenodd;stroke:#000000;stroke-width:0;stroke-linecap:square;stroke-miterlimit:10"
       id="path39"
       d="m 56.828,48.066 c -1.579,2.83 -3.798,7.378 -3.25,10.665 0.252,1.515 2.461,10.537 -0.864,8.875 -5.892,-2.942 -11.489,12.407 -13.712,16.112 3.834,-6.412 2.636,-15.576 6.527,-22.582 4.14,-7.452 7.611,-16.729 12.67,-23.355 -0.315,3.471 -0.447,6.916 -1.371,10.285"
       inkscape:connector-curvature="0" />
    <path
       style="fill-rule:evenodd"
       id="path41"
       d="m 77.397,39.838 c -1.712,4.438 -5.433,14.25 -3.428,17.827 -6.254,-1.501 1.087,-15.248 3.428,-17.827"
       inkscape:connector-curvature="0" />
    <path
       style="fill:#b29e8b;fill-rule:evenodd;stroke:#000000;stroke-width:0;stroke-linecap:square;stroke-miterlimit:10"
       id="path43"
       d="m 158.303,43.953 c -0.374,1.432 -1.155,2.658 -1.371,4.114 -1.967,-3.476 0.226,-7.337 4.114,-7.542 -0.903,1.128 -1.723,2.407 -2.743,3.428"
       inkscape:connector-curvature="0" />
    <path
       style="fill-rule:evenodd"
       id="path45"
       d="m 112.365,41.209 c -8.25,4.583 -9.292,12.317 -15.77,17.827 1.145,-5.15 9.554,-21.084 15.77,-17.827"
       inkscape:connector-curvature="0" />
    <path
       style="fill-rule:evenodd"
       id="path47"
       d="m 131.563,45.324 c 2.656,3.863 5.568,8.66 2.743,12.341 1.362,-2.949 0.006,-4.957 -2.057,-4.799 0.088,-5.718 -1.743,-6.963 -6.171,-10.284 1.799,0.678 3.758,1.658 5.485,2.742"
       inkscape:connector-curvature="0" />
    <path
       style="fill-rule:evenodd"
       id="path49"
       d="m 115.793,44.638 c 0.384,0.424 0.31,0.265 0.686,1.371 -17.864,0.634 -13.116,32.722 -9.599,43.881 -4.331,-4.832 0.174,-12.688 -5.485,-17.141 0.613,-0.074 1.443,-0.066 2.057,0 -1.297,-1.289 -1.723,-2.452 -3.428,-3.428 0.943,0.474 2.376,0.836 3.428,1.371 -0.742,-2.05 -2.107,-3.583 -3.428,-4.114 5.522,1.946 2.154,-2.606 0,-4.8 0.504,0.391 0.893,0.948 1.371,1.372 0.229,-0.229 0.458,-0.457 0.686,-0.686 -0.686,-0.686 -1.372,-1.372 -2.057,-2.057 5.391,-3.278 5.84,-16.345 15.769,-15.769"
       inkscape:connector-curvature="0" />
    <path
       style="fill-rule:evenodd"
       id="path51"
       d="m 137.048,49.438 c 0.341,2.147 -0.191,4.387 -1.371,5.485 0.238,-2.956 -0.247,-6.018 -0.686,-8.914 0.68,1.133 1.487,2.239 2.057,3.429"
       inkscape:connector-curvature="0" />
    <path
       style="fill-rule:evenodd"
       id="path53"
       d="m 129.506,50.123 c 1.92,2.208 1.625,5.126 0,7.542 0.006,-1.138 -0.063,-2.292 0,-3.428 -0.457,0.457 -0.914,0.914 -1.371,1.371 1.021,-2.562 0.099,-5.108 -2.057,-6.856 1.56,-0.997 2.049,0.215 3.428,1.371"
       inkscape:connector-curvature="0" />
    <path
       style="fill:#838383;fill-rule:evenodd;stroke:#000000;stroke-width:0;stroke-linecap:square;stroke-miterlimit:10"
       id="path55"
       d="m 98.652,53.551 c 0.692,-1.822 1.336,-3.343 2.743,-4.799 -0.448,1.962 -1.821,3.752 -2.743,4.799"
       inkscape:connector-curvature="0" />
    <path
       style="fill-rule:evenodd"
       id="path57"
       d="m 139.791,52.18 c -1.111,2.501 -2.335,4.045 -2.743,6.856 0.085,-3.234 0.287,-6.423 2.057,-8.914 0.228,0.687 0.457,1.373 0.686,2.058"
       inkscape:connector-curvature="0" />
    <path
       style="fill-rule:evenodd"
       id="path59"
       d="m 119.907,54.237 c -2.899,1.06 -9.123,-4.4 -10.971,0.686 2.864,-2.886 7.115,-0.759 10.285,0.686 -2.786,-0.017 -3.851,2.002 -6.171,2.743 -2.818,0.899 -4.622,0.151 -7.542,0.686 0.695,-0.656 2.005,-2.753 2.743,-3.428 -0.686,0.457 -1.372,0.915 -2.057,1.372 2.644,-7.145 8.476,-5.149 13.713,-2.745"
       inkscape:connector-curvature="0" />
    <path
       style="fill-rule:evenodd"
       id="path61"
       d="m 123.335,54.237 c -0.52,1.723 -2.112,2.941 -4.114,3.428 1.062,-1.74 2.731,-3.009 3.429,-4.799 -0.168,1.057 0.394,0.623 0.685,1.371"
       inkscape:connector-curvature="0" />
    <path
       style="fill:#ffffff;fill-rule:evenodd;stroke:#000000;stroke-width:0;stroke-linecap:square;stroke-miterlimit:10"
       id="path63"
       d="m 112.365,54.923 c -0.301,0.928 -1.253,1.119 0,2.057 -0.835,-0.357 -1.405,-0.5 -2.057,-1.372 0.631,-0.848 1.61,-0.219 2.057,-0.685"
       inkscape:connector-curvature="0" />
    <path
       style="fill:#ffffff;fill-rule:evenodd;stroke:#000000;stroke-width:0;stroke-linecap:square;stroke-miterlimit:10"
       id="path65"
       d="m 116.479,55.608 c -0.229,0.457 -0.458,0.915 -0.686,1.372 -0.696,-1.625 -0.739,-1.744 -1.371,-2.743 1.891,0.468 2.25,1.627 2.057,1.371"
       inkscape:connector-curvature="0" />
    <path
       style="fill-rule:evenodd"
       id="path67"
       d="m 126.078,61.094 c 0.113,6.715 -7.492,12.14 -10.285,17.827 -2.795,5.692 -0.354,12.379 -2.743,17.141 0.522,-5.604 -2.409,-9.459 -0.685,-14.398 -1.259,0.768 -3.576,1.249 -4.8,2.057 1.372,-2.743 2.743,-5.485 4.114,-8.228 2.341,0.001 0.566,-6.17 4.114,-6.17 2.915,0 7.506,-3.302 8.228,-6.171 -0.682,0.455 -2.044,0.933 -2.743,1.371 2.307,-2.534 3.916,-5.662 4.799,-8.913 0.001,1.816 0.142,3.674 0.001,5.484"
       inkscape:connector-curvature="0" />
    <path
       style="fill:#ffffff;fill-rule:evenodd;stroke:#000000;stroke-width:0;stroke-linecap:square;stroke-miterlimit:10"
       id="path69"
       d="m 107.565,58.351 c 0.359,-1.167 0.917,-2.293 1.371,-3.428 0.5,1.592 0.943,2.523 1.372,3.428 -0.736,0 -2.045,0.252 -2.743,0"
       inkscape:connector-curvature="0" />
    <path
       style="fill-rule:evenodd"
       id="path71"
       d="m 118.536,57.665 c -1.702,2.74 -6.97,4.949 -8.914,2.057 4.225,-1.316 5.36,0.251 8.914,-2.057"
       inkscape:connector-curvature="0" />
    <path
       style="fill-rule:evenodd"
       id="path73"
       d="m 121.278,58.351 c -4.152,2.457 -10.084,8.875 -14.398,2.743 6.179,3.761 10.554,-4.015 14.398,-2.743"
       inkscape:connector-curvature="0" />
    <path
       style="fill:#b29e8b;fill-rule:evenodd;stroke:#000000;stroke-width:0;stroke-linecap:square;stroke-miterlimit:10"
       id="path75"
       d="m 54.771,76.863 c 0,4.91 -0.959,22.489 -6.513,24.34 -6.094,2.031 1.185,-16.04 1.713,-19.541 -4.531,5.056 -3.167,15.912 -10.97,17.141 -0.87,-7.823 2.344,-30.275 13.027,-30.854 0.05,0.659 -0.127,1.41 0,2.057 0.556,-0.721 2.067,-1.531 2.743,-2.742 1.1,3.127 0.297,6.33 0,9.599"
       inkscape:connector-curvature="0" />
    <path
       style="fill:#838383;fill-rule:evenodd;stroke:#000000;stroke-width:0;stroke-linecap:square;stroke-miterlimit:10"
       id="path77"
       d="m 118.536,74.121 c -1.652,1.386 -3.027,2.187 -4.114,4.114 -1.188,-0.561 -2.839,1.208 -4.114,3.428 0.7,-4.118 4.409,-6.608 4.114,-10.97 2.76,0.739 5.033,-1.831 8.228,-3.428 -1.909,1.88 -3.38,4.277 -4.114,6.856"
       inkscape:connector-curvature="0" />
    <path
       style="fill-rule:evenodd"
       id="path79"
       d="m 172.016,78.234 c 0.934,1.126 1.829,2.286 2.743,3.428 -0.457,0 -0.914,0 -1.371,0 -0.797,-3.36 -3.067,-7.361 -4.8,-10.284 1.45,2.1 2.624,4.434 3.428,6.856"
       inkscape:connector-curvature="0" />
    <path
       style="fill-rule:evenodd"
       id="path81"
       d="m 141.848,75.492 c -0.588,0.725 0.877,1.492 -0.686,1.372 0.347,-2.4 -0.235,-3.022 2.057,-4.114 -0.457,0.914 -0.914,1.828 -1.371,2.742"
       inkscape:connector-curvature="0" />
    <path
       style="fill-rule:evenodd"
       id="path83"
       d="m 145.275,81.663 c 2.397,4.86 5.11,9.557 7.542,14.398 -2.168,-2.93 -9.575,-13.495 -7.542,-14.398"
       inkscape:connector-curvature="0" />
    <path
       style="fill-rule:evenodd"
       id="path85"
       d="m 152.818,81.663 c 3.405,5.239 8.419,10.493 4.799,17.141 -1.117,-5.282 -7.648,-15.864 -6.856,-19.883 0.686,0.913 1.357,1.839 2.057,2.742"
       inkscape:connector-curvature="0" />
    <path
       style="fill:#838383;fill-rule:evenodd;stroke:#000000;stroke-width:0;stroke-linecap:square;stroke-miterlimit:10"
       id="path87"
       d="m 143.219,85.776 c 2.834,3.704 -0.849,7.382 -4.114,8.914 1.161,-4.964 0.811,-9.967 -1.371,-14.398 2.59,0.815 4.25,3.003 5.485,5.484"
       inkscape:connector-curvature="0" />
    <path
       style="fill-rule:evenodd"
       id="path89"
       d="m 119.221,83.034 c -3.082,5.07 -2.672,24.136 -8.228,24.683 5.508,-7.715 1.735,-21.417 8.914,-27.426 -0.228,0.915 -0.457,1.829 -0.686,2.743"
       inkscape:connector-curvature="0" />
    <path
       style="fill-rule:evenodd"
       id="path91"
       d="m 71.912,86.462 c -4.516,-1.838 -9.684,-0.925 -14.398,0 2.987,-3.277 10.39,-2.155 14.398,0"
       inkscape:connector-curvature="0" />
    <path
       style="fill-rule:evenodd"
       id="path93"
       d="m 122.65,85.091 c -1.449,4.843 -1.013,17.223 -6.857,18.513 2.631,-5.458 2.651,-14.206 6.857,-18.513"
       inkscape:connector-curvature="0" />
    <path
       style="fill:#838383;fill-rule:evenodd;stroke:#000000;stroke-width:0;stroke-linecap:square;stroke-miterlimit:10"
       id="path95"
       d="m 384.564,94.69 c 0.582,1.306 0.919,2.756 1.371,4.114 -3.851,-3.15 -8.144,-8.789 -4.799,-13.713 1.162,3.193 2.355,6.375 3.428,9.599"
       inkscape:connector-curvature="0" />
    <path
       style="fill:#b29e8b;fill-rule:evenodd;stroke:#000000;stroke-width:0;stroke-linecap:square;stroke-miterlimit:10"
       id="path97"
       d="m 158.303,94.004 c -0.229,0.914 -0.457,1.829 -0.686,2.743 -0.761,-3.481 -2.275,-6.84 -2.742,-10.285 2.887,1.772 2.71,4.311 3.428,7.542"
       inkscape:connector-curvature="0" />
    <path
       style="fill-rule:evenodd"
       id="path99"
       d="m 126.764,89.89 c -0.24,2.31 -0.831,4.82 -2.057,6.171 -0.37,-2.971 -0.173,-6.101 2.057,-6.171"
       inkscape:connector-curvature="0" />
    <path
       style="fill:#e9e9e9;fill-rule:evenodd"
       id="path101"
       d="m 94.538,108.402 c 11.999,17.581 -23.894,46.298 -36.339,54.166 13.935,-10.948 37.805,-34.938 33.597,-54.851 0.956,0.044 1.849,0.309 2.742,0.685"
       inkscape:connector-curvature="0" />
    <path
       style="fill:#ffffff;fill-rule:evenodd;stroke:#000000;stroke-width:0;stroke-linecap:square;stroke-miterlimit:10"
       id="path103"
       d="m 91.11,111.831 c -1.186,14.009 -9.958,24.729 -17.7,35.856 -5.585,8.028 -22.232,22.085 -32.352,22.422 10.999,-9.678 21.824,-17.952 30.354,-30.141 5.808,-8.298 7.569,-30.672 19.011,-32.252 0.215,1.283 0.811,2.833 0.687,4.115"
       inkscape:connector-curvature="0" />
    <path
       style="fill-rule:evenodd"
       id="path105"
       d="m 130.877,108.402 c -6.881,5.925 -13.333,9.367 -22.625,8.914 2.816,-1.616 8.423,-1.215 11.859,-3.276 3.151,-1.891 8.482,-6.349 10.766,-5.638"
       inkscape:connector-curvature="0" />
    <path
       style="fill-rule:evenodd"
       id="path107"
       d="m 58.199,110.459 c -3.115,-0.737 -8.394,-0.065 -10.285,-1.371 3.572,0 7.052,-0.46 10.285,1.371"
       inkscape:connector-curvature="0" />
    <path
       style="fill:#e9e9e9;fill-rule:evenodd"
       id="path109"
       d="m 39.001,137.885 c -1.822,6.006 -9.256,10.623 -14.398,13.713 1.727,-2.22 4.246,-4.511 5.142,-7.199 0.741,-2.223 -1.356,-5.259 -1.028,-6.514 1.329,-5.082 10.282,-12.73 13.713,-17.141 -1.223,5.707 -2.385,11.4 -3.429,17.141"
       inkscape:connector-curvature="0" />
    <path
       style="fill:#ffffff;fill-rule:evenodd;stroke:#000000;stroke-width:0;stroke-linecap:square;stroke-miterlimit:10"
       id="path111"
       d="m 29.402,140.627 c 0.657,9.128 -20.022,23.196 -28.111,18.512 8.141,-7.743 18.387,-12.858 26.74,-20.568 0.646,0.576 1.045,1.252 1.371,2.056"
       inkscape:connector-curvature="0" />
    <path
       style="fill:#595959;fill-rule:evenodd;stroke:#000000;stroke-width:0;stroke-linecap:square;stroke-miterlimit:10"
       id="path113"
       d="m 117.85,159.825 c 5.672,5.673 11.458,11.188 17.3,16.687 3.869,3.642 15.243,6.257 11.497,12.11 -5.353,-3.066 -11.43,-3.314 -16.812,-6.006 -5.94,-2.971 -11.152,-8.448 -17.47,-10.449 -7.181,-2.274 -8.914,-0.117 -8.914,-9.427 0,-6.041 0.284,-11.969 0.686,-17.998 4.395,5.493 8.433,10.463 13.713,15.083"
       inkscape:connector-curvature="0" />
    <path
       style="fill:#ababab;fill-rule:evenodd;stroke:#000000;stroke-width:0;stroke-linecap:square;stroke-miterlimit:10"
       id="path115"
       d="m 74.655,159.825 c -3.423,15.174 -8.792,31.18 -15.35,45.234 -3.32,7.115 -6.29,13.559 -7.961,21.273 -1.491,6.88 -1.842,11.348 -6.171,15.77 0.229,0.229 0.457,0.458 0.685,0.687 0.457,-0.229 0.915,-0.458 1.372,-0.687 -0.624,1.382 -0.431,2.779 -1.372,4.114 0.686,-0.229 1.372,-0.457 2.057,-0.686 -0.175,0.982 -0.721,1.715 -0.686,2.742 1.119,-1.234 1.862,-0.896 2.742,-3.428 1.386,2.266 1.48,2.775 0.686,5.484 0.915,-1.465 1.297,-2.36 1.371,-4.799 1.662,1.244 2.665,2.146 3.429,4.113 1.425,-1.977 0.766,-9.557 4.114,-10.284 -0.068,0.388 13.328,5.199 17.141,4.799 -3.035,4.581 -12.795,6.805 -17.827,8.914 -8.663,3.632 -16.451,3.038 -24.683,0 0.856,-0.815 1.288,-1.993 2.057,-2.743 -1.677,0.946 -2.459,0.837 -4.114,1.372 0.586,-0.453 2.098,-2.248 2.743,-2.742 -2.014,1.165 -4.667,0.387 -6.171,-1.372 0.457,0 0.914,0 1.371,0 -7.476,-7.542 -0.692,-23.285 1.843,-33.425 3.509,-14.037 8.065,-27.858 7.071,-42.682 9.957,3.449 33.262,-14.737 38.396,-22.625 -0.678,3.73 -1.04,7.534 -2.743,10.971"
       inkscape:connector-curvature="0" />
    <path
       style="fill-rule:evenodd"
       id="path117"
       d="m 363.995,159.825 c -1.649,3.663 -5.37,5.335 -7.542,7.543 0.229,-0.686 0,-0.914 -0.686,-0.686 2.833,-2.203 5.735,-4.269 8.228,-6.857"
       inkscape:connector-curvature="0" />
    <path
       style="fill:#838383;fill-rule:evenodd;stroke:#000000;stroke-width:0;stroke-linecap:square;stroke-miterlimit:10"
       id="path119"
       d="m 383.879,168.739 c -2.128,2.536 -3.23,5.616 -2.742,8.913 -3.421,-5.529 1.753,-14.381 3.428,-19.884 -10e-4,3.367 0.657,8.818 -0.686,10.971"
       inkscape:connector-curvature="0" />
    <path
       style="fill:#ababab;fill-rule:evenodd;stroke:#000000;stroke-width:0;stroke-linecap:square;stroke-miterlimit:10"
       id="path121"
       d="m 388.679,187.937 c 1.782,6.537 2.538,20.362 8.913,23.997 -0.405,0.833 -0.787,1.374 -1.372,2.058 -3.064,-2.792 -6.542,-8.336 -6.171,-10.285 0.229,-0.229 0.458,-0.458 0.687,-0.687 -5.801,-6.736 -11.632,-24.591 -6.856,-32.91 2.806,3.329 3.68,12.977 4.799,17.827"
       inkscape:connector-curvature="0" />
    <path
       style="fill-rule:evenodd"
       id="path123"
       d="m 342.741,178.337 c -5.521,4.831 -13.465,12.681 -19.885,15.085 4.759,-9.342 20.466,-15.857 28.112,-23.313 -1.829,3.821 -4.957,5.776 -8.227,8.228"
       inkscape:connector-curvature="0" />
    <path
       style="fill:#838383;fill-rule:evenodd;stroke:#000000;stroke-width:0;stroke-linecap:square;stroke-miterlimit:10"
       id="path125"
       d="m 115.793,174.91 c 5.682,3.652 11.387,8.04 17.827,10.285 9.112,3.177 15.021,2.162 8.486,13.054 -8.107,13.512 -16.167,26.578 -24.941,39.739 -4.264,-3.69 -6.485,-11.82 -7.542,-17.141 2.351,0.878 3.473,0.623 5.485,0 -3.216,-1.08 -6.906,-3.099 -8.228,-6.171 2.164,1.645 2.74,1.499 4.799,1.372 -4.018,-2.004 -5.775,-5.342 -6.856,-9.6 1.098,0.736 2.39,1.243 3.429,2.058 0.229,-0.229 0.457,-0.457 0.685,-0.686 -5.852,-4.115 -5.827,-15.433 -5.244,-21.854 0.167,-1.842 -1.182,-12.077 -0.241,-13.114 2.364,-2.606 10.033,0.864 12.341,2.058"
       inkscape:connector-curvature="0" />
    <path
       style="fill-rule:evenodd"
       id="path127"
       d="m 45.857,176.281 c -1.594,0.069 -3.203,0 -4.799,0 2.14,-0.905 3.735,-0.492 4.799,0"
       inkscape:connector-curvature="0" />
    <path
       style="fill-rule:evenodd"
       id="path129"
       d="m 49.971,179.024 c -2.737,1.409 -7.017,2.215 -9.599,0 3.2,0 6.399,0 9.599,0"
       inkscape:connector-curvature="0" />
    <path
       style="fill-rule:evenodd"
       id="path131"
       d="m 47.915,181.766 c 0.336,1.854 -5.175,1.975 -7.542,0 2.744,0.136 4.979,0.523 7.542,0"
       inkscape:connector-curvature="0" />
    <path
       style="fill-rule:evenodd"
       id="path133"
       d="m 45.857,184.508 c -1.417,0.283 -2.936,0.822 -4.799,0 1.598,0 3.203,-0.059 4.799,0"
       inkscape:connector-curvature="0" />
    <path
       style="fill-rule:evenodd"
       id="path135"
       d="m 368.109,186.565 c -2.33,3.875 -7.285,19.024 -10.97,19.884 0.71,-1.124 1.301,-2.336 2.057,-3.429 -4.043,2.715 -7.178,5.04 -12.342,6.171 4.705,-2.351 8.487,-4.588 12.342,-8.228 -3.969,-0.104 -6.141,3.56 -10.284,3.429 4.164,-1.773 10.784,-5.188 12.341,-8.913 -1.024,0.444 -2.418,0.905 -3.429,1.371 0.468,-3.068 3.999,-3.969 6.171,-6.171 1.552,-1.574 4.262,-6.273 4.114,-4.114"
       inkscape:connector-curvature="0" />
    <path
       style="fill-rule:evenodd"
       id="path137"
       d="m 338.627,186.565 c -8.356,7.713 -14.129,13.416 -14.398,25.369 -4.505,-6.104 7.786,-26.828 14.398,-25.369"
       inkscape:connector-curvature="0" />
    <path
       style="fill:#838383;fill-rule:evenodd;stroke:#000000;stroke-width:0;stroke-linecap:square;stroke-miterlimit:10"
       id="path139"
       d="m 317.371,199.593 c -6.527,3.262 -12.803,9.26 -17.141,0.685 5.03,-1.253 10.32,-2.851 14.398,-6.171 0.596,1.959 1.552,3.887 2.743,5.486"
       inkscape:connector-curvature="0" />
    <path
       style="fill:#838383;fill-rule:evenodd;stroke:#000000;stroke-width:0;stroke-linecap:square;stroke-miterlimit:10"
       id="path141"
       d="m 318.058,209.191 c 1.621,3.913 -1.325,10.371 -2.057,14.398 -2.209,-4.859 -4.431,-9.618 -7.021,-14.283 -2.233,-4.022 4.895,-6.814 8.392,-8.343 0.305,2.75 0.681,5.461 0.686,8.228"
       inkscape:connector-curvature="0" />
    <path
       style="fill-rule:evenodd"
       id="path143"
       d="m 331.085,207.134 c 2.489,2.363 8.529,2.449 10.97,2.057 0.229,0.229 0.458,0.458 0.687,0.687 -5.127,0 -10.206,0.041 -14.398,-2.743 0.357,-0.728 0.463,-0.511 0.685,-1.371 0.229,0.229 0.457,0.457 0.686,0.686 0,-0.457 0,-0.914 0,-1.371 0.455,0.684 0.913,1.37 1.37,2.055"
       inkscape:connector-curvature="0" />
    <path
       style="fill-rule:evenodd"
       id="path145"
       d="m 333.142,212.62 c 2.39,0.115 4.727,0.924 6.856,2.057 -4.57,-0.103 -10.565,-0.133 -10.285,-6.17 0.714,2.064 2.018,2.878 3.429,4.113"
       inkscape:connector-curvature="0" />
    <path
       style="fill:#ababab;fill-rule:evenodd;stroke:#000000;stroke-width:0;stroke-linecap:square;stroke-miterlimit:10"
       id="path147"
       d="m 401.706,212.62 c 0.434,1.379 0.914,2.743 1.371,4.114 -0.229,-0.914 -0.458,-1.828 -0.687,-2.742 2.08,1.633 3.816,3.729 4.801,6.171 -1.145,-0.613 -2.404,-1.263 -3.429,-2.058 1.636,1.708 4.532,2.715 6.855,4.114 -0.457,0 -0.913,0 -1.37,0 1.08,1.499 0.98,1.413 1.37,2.742 -2.435,-1.774 -10.725,-7.906 -12.341,-7.543 2.232,2.472 6.194,3.42 6.171,6.857 -1.34,-1.964 -3.171,-3.124 -5.485,-3.429 0.686,0.686 1.372,1.372 2.058,2.058 -5.326,-1.996 -6.306,-5.806 -7.543,-10.971 1.536,0.955 2.819,2.849 3.429,4.8 0,-0.686 0,-1.372 0,-2.058 0.649,0.589 1.962,1.139 2.742,2.058 0.84,-2.653 -1.207,-4.399 -2.742,-6.856 1.549,0.998 3.259,1.756 4.8,2.743"
       inkscape:connector-curvature="0" />
    <path
       style="fill:#838383;fill-rule:evenodd;stroke:#000000;stroke-width:0;stroke-linecap:square;stroke-miterlimit:10"
       id="path149"
       d="m 322.172,228.39 c 0.169,1.763 0.12,3.258 -0.687,4.799 -3.37,-7.211 -6.538,-11.536 -2.742,-19.884 1.588,5.163 2.833,9.73 3.429,15.085"
       inkscape:connector-curvature="0" />
    <path
       style="fill-rule:evenodd"
       id="path151"
       d="m 404.448,219.476 c -1.164,0.496 -3.292,-1.306 -4.114,-3.428 1.267,1.315 2.777,2.21 4.114,3.428"
       inkscape:connector-curvature="0" />
    <path
       style="fill-rule:evenodd"
       id="path153"
       d="m 338.627,218.791 c 0.914,0 1.828,0 2.742,0 -1.747,2.599 -7.021,0.555 -9.6,-1.372 0.229,-0.229 0.458,-0.456 0.687,-0.685 1.903,1.139 3.961,1.823 6.171,2.057"
       inkscape:connector-curvature="0" />
    <path
       style="fill:#838383;fill-rule:evenodd;stroke:#000000;stroke-width:0;stroke-linecap:square;stroke-miterlimit:10"
       id="path155"
       d="m 359.882,229.075 c 1.104,2.201 2.003,4.507 2.742,6.856 -4.543,1.354 -7.364,7.796 -8.913,11.656 -0.362,-8.174 1.833,-17.363 5.485,-24.683 0.561,2.022 0.789,4.081 0.686,6.171"
       inkscape:connector-curvature="0" />
    <path
       style="fill:#838383;fill-rule:evenodd;stroke:#000000;stroke-width:0;stroke-linecap:square;stroke-miterlimit:10"
       id="path157"
       d="m 364.681,240.732 c 1.524,2.695 5.485,6.006 5.485,8.913 0,2.803 -2.157,9.24 1.371,8.228 1.833,7.684 5.199,13.674 -3.428,17.141 -6.553,2.633 -16.985,5.908 -15.262,-4.419 1.036,-6.21 -0.684,-13.525 0.863,-20.265 0.891,-3.876 8.535,-20.461 10.971,-9.598"
       inkscape:connector-curvature="0" />
    <path
       style="fill:#ababab;fill-rule:evenodd"
       id="path159"
       d="m 60.942,240.045 c -0.457,-0.229 -0.914,-0.457 -1.371,-0.686 1.297,-0.381 0.934,0.335 1.371,0.686"
       inkscape:connector-curvature="0" />
    <path
       style="fill-rule:evenodd"
       id="path161"
       d="m 32.145,240.045 c -1.794,0.636 -2.431,2.14 -3.428,0 1.307,-0.449 3.271,-0.022 3.428,0"
       inkscape:connector-curvature="0" />
    <path
       style="fill:#b29e8b;fill-rule:evenodd;stroke:#000000;stroke-width:0;stroke-linecap:square;stroke-miterlimit:10"
       id="path163"
       d="m 76.711,242.789 c -2.075,0.73 -4.176,0.46 -6.171,-0.687 2.115,-0.315 4.268,-0.088 6.171,0.687"
       inkscape:connector-curvature="0" />
    <path
       style="fill-rule:evenodd"
       id="path165"
       d="m 363.995,242.789 c 2.407,2.357 4.947,11.451 2.058,13.712 -0.361,-4.254 -1.727,-11.989 -2.058,-13.712"
       inkscape:connector-curvature="0" />
    <path
       style="fill:#838383;fill-rule:evenodd;stroke:#000000;stroke-width:0;stroke-linecap:square;stroke-miterlimit:10"
       id="path167"
       d="m 161.046,251.016 c 0.664,1.52 0.877,3.148 0.685,4.799 -1.903,-1.139 -3.961,-1.823 -6.171,-2.057 0.257,-2.987 1.684,-5.786 4.114,-7.542 0.736,1.441 1.336,3.163 1.372,4.8"
       inkscape:connector-curvature="0" />
    <path
       style="fill:#ababab;fill-rule:evenodd"
       id="path169"
       d="m 28.031,248.959 c -0.229,-0.457 -0.457,-0.915 -0.685,-1.372 0.723,0.426 0.446,0.745 0.685,1.372"
       inkscape:connector-curvature="0" />
    <path
       style="fill:#ababab;fill-rule:evenodd"
       id="path171"
       d="m 30.088,252.387 c 0.668,1.904 -0.648,-1.229 -0.686,-1.371 1.076,0.77 0.844,1.819 0.686,1.371"
       inkscape:connector-curvature="0" />
    <path
       style="fill:#838383;fill-rule:evenodd;stroke:#000000;stroke-width:0;stroke-linecap:square;stroke-miterlimit:10"
       id="path173"
       d="m 60.256,254.444 c -6.658,3.792 -21.252,8.813 -27.425,0.686 11.461,3.482 20.451,1.902 30.854,-3.428 -1.062,1.012 -2.226,1.894 -3.429,2.742"
       inkscape:connector-curvature="0" />
    <path
       style="fill:#838383;fill-rule:evenodd;stroke:#000000;stroke-width:0;stroke-linecap:square;stroke-miterlimit:10"
       id="path175"
       d="m 160.36,256.5 c 5.397,5.131 6.759,14.21 7.542,21.255 -0.766,-1.1 -2.185,-2.072 -2.742,-2.742 0.53,2.562 2.162,8.885 3.428,10.284 0,-0.686 0,-1.371 0,-2.057 3.832,7.664 10.392,19.971 -1.47,24.283 -7.739,2.813 -19.812,9.445 -28.013,8.628 1.176,-3.245 -3.007,-5.194 -6.171,-6.171 1.982,-0.848 2.581,-1.966 4.114,-2.742 -1.876,-0.992 -4.905,1.949 -5.828,1.027 -2.245,-2.24 -5.376,-3.411 -7.199,-0.342 -0.372,-4.391 4.556,-2.058 7.669,-2.058 2.845,0 7.371,-2.765 8.787,-2.057 7.058,3.528 13.2,-4.597 16.798,-8.913 3.216,-3.858 4.85,-4.809 5.65,-10.412 0.733,-5.133 -4.257,-7.006 -5.65,-11.186 -1.251,-3.748 -6.604,-23.99 3.085,-16.797"
       inkscape:connector-curvature="0" />
    <path
       style="fill-rule:evenodd"
       id="path177"
       d="m 346.169,262.671 c 1.104,1.324 -3.43,-0.509 -5.485,-0.686 -4.067,-0.35 -8.058,1.441 -11.656,-0.686 4.741,-2.072 12.198,0.274 17.141,1.372"
       inkscape:connector-curvature="0" />
    <path
       style="fill-rule:evenodd"
       id="path179"
       d="m 342.741,263.357 c 2.427,0.201 4.389,1.34 5.484,3.429 -4.469,-2.855 -9.553,-3.445 -15.084,-3.429 2.724,-2.243 6.389,-0.682 9.6,0"
       inkscape:connector-curvature="0" />
    <path
       style="fill-rule:evenodd"
       id="path181"
       d="m 346.169,266.786 c 0.183,0.729 -9.51,0 -13.027,0 2.926,-1.758 9.161,-1.749 13.027,0"
       inkscape:connector-curvature="0" />
    <path
       style="fill-rule:evenodd"
       id="path183"
       d="m 344.111,268.157 c 0.786,0.594 1.402,0.22 1.372,1.371 -4.637,-1.602 -12.566,-0.031 -15.771,-2.057 5.088,0.664 9.188,-0.77 14.399,0.686"
       inkscape:connector-curvature="0" />
    <path
       style="fill-rule:evenodd"
       id="path185"
       d="m 338.627,271.584 c -0.455,1.085 -4.453,0.687 -7.542,0.687 2.452,-0.587 5.022,-0.825 7.542,-0.687"
       inkscape:connector-curvature="0" />
    <path
       style="fill:#ffffff;fill-rule:evenodd;stroke:#000000;stroke-width:0;stroke-linecap:square;stroke-miterlimit:10"
       id="path187"
       d="m 118.536,292.84 c 6.207,6.415 -1.65,8.051 -5.511,3.225 -5.393,-6.742 0.388,-7.325 5.511,-3.225"
       inkscape:connector-curvature="0" />
    <path
       style="fill:#ffffff;fill-rule:evenodd;stroke:#000000;stroke-width:0;stroke-linecap:square;stroke-miterlimit:10"
       id="path189"
       d="m 353.025,291.468 c 0.187,4.795 -11.667,10.375 -13.027,6.171 -1.521,-4.702 10.597,-7.508 13.027,-6.171"
       inkscape:connector-curvature="0" />
    <path
       style="fill:#ffffff;fill-rule:evenodd;stroke:#000000;stroke-width:0;stroke-linecap:square;stroke-miterlimit:10"
       id="path191"
       d="m 316.687,292.84 c 1.467,0.965 2.649,2.574 3.428,4.113 -9.016,3.416 -15.303,-7.496 -3.428,-4.113"
       inkscape:connector-curvature="0" />
    <path
       style="fill:#ffffff;fill-rule:evenodd;stroke:#000000;stroke-width:0;stroke-linecap:square;stroke-miterlimit:10"
       id="path193"
       d="m 332.456,294.21 c 9.85,5.012 -2.824,7.271 -7.542,4.801 -7.423,-3.886 2.168,-7.913 7.542,-4.801"
       inkscape:connector-curvature="0" />
    <path
       style="fill:#ffffff;fill-rule:evenodd;stroke:#000000;stroke-width:0;stroke-linecap:square;stroke-miterlimit:10"
       id="path195"
       d="m 152.818,297.639 c -1.648,3.291 -9.799,8.367 -12.341,4.799 -3.109,-4.364 9.088,-6.007 12.341,-4.799"
       inkscape:connector-curvature="0" />
    <path
       style="fill:#ffffff;fill-rule:evenodd;stroke:#000000;stroke-width:0;stroke-linecap:square;stroke-miterlimit:10"
       id="path197"
       d="m 134.991,299.011 c 9.375,4.352 -6.675,5.773 -10.589,4.469 -4.553,-1.518 -1.791,-4.107 0.99,-5.498 2.248,-1.124 7.118,0.459 9.599,1.029"
       inkscape:connector-curvature="0" />
    <path
       style="fill:#ffffff;fill-rule:evenodd;stroke:#000000;stroke-width:0;stroke-linecap:square;stroke-miterlimit:10"
       id="path199"
       d="m 130.877,309.295 c -2.083,1.283 -5.374,7.286 -7.542,3.428 -2.415,-4.298 4.355,-6.101 7.542,-3.428"
       inkscape:connector-curvature="0" />
    <path
       style="fill:#ffffff;fill-rule:evenodd;stroke:#000000;stroke-width:0;stroke-linecap:square;stroke-miterlimit:10"
       id="path201"
       d="m 135.677,312.723 c 6.347,0.878 -0.383,5.102 -4.8,3.429 -7.085,-2.684 0.581,-6.151 4.8,-3.429"
       inkscape:connector-curvature="0" />
    <path
       style="fill:#838383;fill-rule:evenodd;stroke:#000000;stroke-width:0;stroke-linecap:square;stroke-miterlimit:10"
       id="path203"
       d="m 138.419,141.313 c 0.301,-2.711 3.144,-12.263 0.686,-14.398 -2.272,-1.974 -8.547,2.243 -11.656,0.686 0.686,-0.686 1.371,-1.371 2.057,-2.057 -1.57,1.263 -11.612,3.386 -9.256,1.028 4.067,-4.07 10.128,-4.175 14.03,-9.053 2.058,-2.572 -10.594,-0.825 -12.52,0.33 -4.301,2.581 -13.998,1.522 -15.566,6.323 1.551,-0.162 3.274,0.318 4.799,0 -0.229,0.229 -0.457,0.457 -0.686,0.686 1.142,0.03 2.286,-0.016 3.428,0 -1.902,1.625 -6.029,1.708 -8.914,0.686 5.515,4.136 9.189,3.022 14.398,5.485 -4.969,0.331 -10.315,2.998 -13.027,-2.742 0.457,0.229 0.914,0.457 1.371,0.685 -0.806,-0.913 -2.745,-2.126 -3.428,-2.743 -16.997,12.346 33.813,51.309 44.567,57.594 1.172,-8.306 -6.997,-11.568 -8.228,-19.197 2.939,1.944 5.283,7.339 8.228,10.284 -1.422,-5.772 -6.805,-9.545 -8.228,-15.771 -1.307,-5.733 -0.252,-12.235 -2.055,-17.826"
       inkscape:connector-curvature="0" />
    <path
       style="fill-rule:evenodd"
       id="path205"
       d="m 334.513,133.086 c -2.454,3.311 -3.794,8.27 -7.542,10.285 0.856,-1.429 1.49,-2.776 2.742,-4.114 -2.105,1.539 -4.148,3.554 -6.171,4.8 3.82,-3.247 7.662,-7.402 10.971,-11.656 1.595,-0.193 0.062,0.24 0,0.685"
       inkscape:connector-curvature="0" />
    <path
       style="fill-rule:evenodd"
       id="path207"
       d="m 324.229,139.942 c -1.562,3.577 -6.659,9.675 -10.971,9.599 4.898,-1.744 8.767,-8.508 12.342,-11.656 -0.457,0.686 -0.914,1.372 -1.371,2.057"
       inkscape:connector-curvature="0" />
    <path
       style="fill-rule:evenodd"
       id="path209"
       d="m 311.2,149.541 c -0.921,0.907 -1.828,1.829 -2.742,2.743 -0.229,-0.229 -0.456,-0.457 -0.685,-0.686 1.148,-2.046 2.737,-4.76 3.427,-2.057"
       inkscape:connector-curvature="0" />
    <path
       style="fill:#ababab;fill-rule:evenodd"
       id="path211"
       d="m 139.791,129.658 c 4.942,-0.779 9.228,-5.599 13.059,-8.501 2.497,-1.892 9.656,-9.567 12.903,-9.272 14.651,1.332 29.301,2.664 43.952,3.996 2.099,0.191 7.703,-0.479 8.669,1.694 3.005,6.761 6.01,13.521 9.016,20.282 3.393,7.634 21.777,5.501 29.297,6.261 13.216,1.335 26.432,2.67 39.647,4.005 2.274,0.229 6.836,-4.263 8.605,-5.46 7.044,-4.768 14.087,-9.536 21.131,-14.304 9.079,-6.146 17.533,-11.473 27.317,-16.365 9.493,-4.747 21.974,-14.22 33.235,-10.447 -7.752,11.07 -18.422,20.331 -27.301,30.642 -8.826,10.25 -15.141,13.577 -27.349,19.74 -16.081,8.118 -32.162,16.237 -48.244,24.355 -10.162,5.131 -26.146,-0.324 -37.079,-1.502 -4.057,-0.437 -10.138,0.408 -12.932,-2.85 -5.938,-6.929 -11.877,-13.857 -17.815,-20.785 -2.871,-3.35 -0.217,-12.39 -3.242,-14.251 -5.973,-3.675 -11.634,-6.619 -18.034,-9.482 -3.036,-1.358 -14.346,-8.656 -17.31,-6.814 -7.54,4.687 -15.08,9.374 -22.619,14.061 -4.403,2.737 -9.638,1.537 -9.108,7.358 0.781,8.596 1.563,17.191 2.344,25.787 0.132,1.446 0.13,2.909 0.085,4.36 -11.907,-10.251 -9.101,-28.541 -8.227,-42.508"
       inkscape:connector-curvature="0" />
    <path
       style="fill:#838383;fill-rule:evenodd"
       id="path213"
       d="m 371.537,117.316 c 0.911,3.483 -8.868,23.272 -12.685,27.083 -3.58,3.576 -4.891,9.347 -7.884,13.369 -3.342,4.491 -7.692,8.683 -11.313,13.027 -6.928,8.313 -18.576,17.909 -27.77,23.654 -10.099,6.313 -22.761,7.611 -34.281,9.257 -23.075,3.296 -50.828,7.91 -73.364,-1.371 -9.624,-3.964 -1.859,-17.904 0,-26.055 2.919,-12.804 5.295,-25.729 8.914,-38.396 2.713,14.577 17.328,25.926 30.854,29.482 16.128,4.241 29.452,0.993 45.53,-0.793 9.454,-1.05 15.711,-5.881 23.746,-10.826 6.043,-3.719 12.796,-6.378 18.158,-10.463 4.981,-3.793 33.728,-31.016 40.095,-27.968"
       inkscape:connector-curvature="0" />
    <path
       style="fill:#ababab;fill-rule:evenodd"
       id="path215"
       d="m 139.791,140.627 c 3.458,9.537 -2.195,23.034 8.914,29.482 -1.228,-11.666 -6.277,-26.923 0.686,-37.367 6.565,-9.847 19.502,-16.081 31.007,-17.04 8.548,-0.712 29.593,0.347 33.1,10.869 1.95,5.852 0.239,11.106 3.238,17.103 2.606,5.212 5.876,9.552 10.132,13.408 18.025,16.327 43.109,10.549 64.45,7.885 5.502,-0.687 10.543,-4.519 15.281,-7.243 4.991,-2.87 14.165,-10.926 20.029,-10.926 4.418,0 11.745,-8.364 15.084,-10.97 5.239,-4.089 10.58,-8.074 15.687,-12.33 5.237,-4.364 10.075,-5.558 15.51,-8.925 5.219,-3.233 8.92,-8.824 12.342,-13.712 -4.076,-3.761 -6.172,-7.937 -6.171,-13.713 0.002,-7.319 -0.856,-11.313 -4.436,-18.47 -2.875,-5.75 -7.134,-7.438 -12.647,-10.588 -5.937,-3.393 -12.41,-8.576 -19.255,-10.023 -11.895,-2.516 -25.492,1.291 -37.684,0.071 -9.419,-0.942 -22.781,-8.944 -31.91,-5.899 -8.098,2.701 -17.784,-2.578 -26.016,-1.207 -2.228,0.371 -4.839,-1.586 -7.237,-1.879 -2.321,-0.284 -2.649,1.86 -5.143,1.028 -2.83,-0.944 -7.408,0.407 -9.941,0.343 -3.078,-0.078 -9.394,0.284 -12.406,-1.007 -7.801,-3.343 -9.847,-0.736 -9.091,6.821 0.606,6.052 -0.907,12.119 -0.444,18.183 0.27,3.539 4.205,13.142 1.372,15.77 0.18,-0.167 -10.986,1.355 -9.942,2.399 -3.934,-3.934 -1.158,-7.002 -8.57,-3.085 -1.646,0.87 -2.115,3.258 -4.114,4.113 -1.677,0.717 -4.864,-0.099 -6.17,0.686 -3.584,2.152 -5.599,7.365 -9.6,9.599 -7.461,4.167 -8.602,11.234 -14.169,17.42 -7.356,8.173 -10.652,18.711 -11.886,29.204"
       inkscape:connector-curvature="0" />
    <path
       style="fill-rule:evenodd"
       id="path217"
       d="m 227.553,101.546 c -0.336,4.364 0.29,17.02 -4.114,19.198 2.154,-6.46 4.116,-13.902 3.429,-20.569 -0.149,0.937 0.281,0.734 0.685,1.371"
       inkscape:connector-curvature="0" />
    <path
       style="fill-rule:evenodd"
       id="path219"
       d="m 230.981,104.975 c 0.901,4.823 1.351,8.562 -2.057,12.341 1.145,-4.241 0.363,-13.114 2.742,-15.77 -0.228,1.142 -0.495,2.28 -0.685,3.429"
       inkscape:connector-curvature="0" />
    <path
       style="fill-rule:evenodd"
       id="path221"
       d="m 233.038,117.316 c -0.523,3.054 -1.623,6.138 -2.743,8.913 -1.348,-3.843 1.497,-6.921 2.057,-10.284 0.228,0.457 0.458,0.914 0.686,1.371"
       inkscape:connector-curvature="0" />
    <path
       style="fill-rule:evenodd"
       id="path223"
       d="m 317.371,91.947 c 1.936,2.59 1.777,6.676 -0.685,8.914 0.705,-4.278 -0.049,-7.471 -0.686,-11.656 1.432,0.86 0.943,1.558 1.371,2.742"
       inkscape:connector-curvature="0" />
    <path
       style="fill-rule:evenodd"
       id="path225"
       d="m 315.314,93.319 c 0.712,3.356 -1.728,9.892 -4.114,11.656 2.44,-4.908 1.409,-9.301 2.744,-13.713 0.689,0.614 0.877,1.306 1.37,2.057"
       inkscape:connector-curvature="0" />
    <path
       style="fill-rule:evenodd"
       id="path227"
       d="m 312.572,93.319 c 0.326,2.521 0.109,4.799 -1.372,6.171 0.801,-2.197 0.701,-4.682 0,-6.857 0.995,-0.158 0.681,0.325 1.372,0.686"
       inkscape:connector-curvature="0" />
    <path
       style="fill-rule:evenodd"
       id="path229"
       d="m 345.483,74.121 c 2.984,5.34 8.178,6.805 12.341,10.97 -0.412,-0.785 -0.734,-1.236 -1.371,-2.057 3.904,1.199 6.949,4.877 9.6,8.228 -1.201,0.109 -1.175,-0.267 -2.058,-0.686 -1.778,0.517 -0.464,1.118 -3.428,0 -1.21,1.618 -1.36,0.678 -2.743,2.057 -2.424,-1.074 -4.358,-1.093 -3.428,2.057 -3.844,-1.98 -9.177,-17.39 -11.655,-21.94 1.153,0.139 1.736,0.762 2.742,1.371"
       inkscape:connector-curvature="0" />
    <path
       style="fill:#838383;fill-rule:evenodd;stroke:#000000;stroke-width:0;stroke-linecap:square;stroke-miterlimit:10"
       id="path231"
       d="m 351.654,81.663 c 2.411,3.106 8.139,6.069 10.284,6.17 0.457,0.458 0.914,0.915 1.371,1.372 -0.939,0.416 -3.821,1.333 -4.113,1.371 -1.123,-0.356 -4.183,0.962 -4.8,0.686 -3.628,-1.625 -4.367,-9.163 -6.171,-12.341 1.429,0.652 2.331,1.621 3.429,2.742"
       inkscape:connector-curvature="0" />
    <path
       style="fill:#838383;fill-rule:evenodd;stroke:#000000;stroke-width:0;stroke-linecap:square;stroke-miterlimit:10"
       id="path233"
       d="m 285.832,43.267 c -23.06,-13.785 -51.241,-8.655 -76.106,-6.171 6.015,4.517 14.146,-0.074 19.199,3.429 -0.138,-2.482 4.738,-1.504 8.228,-1.372 -0.131,-0.564 -0.56,-0.646 -0.687,-1.371 4.692,2.473 11.572,3.328 17.827,2.743 -0.457,-0.457 -0.915,-0.915 -1.372,-1.372 2.13,0.188 4.288,0.919 6.171,2.057 -0.914,-0.457 -1.828,-0.914 -2.742,-1.371 2.065,0.256 4.198,0.733 6.171,1.371 -0.594,-0.617 -1.021,-1.033 -1.371,-1.371 2.062,0.877 4.649,2.507 6.855,1.371 -0.14,-0.409 -0.523,-0.947 -0.686,-1.371 3.84,2.813 13.165,2.785 18.513,3.428"
       inkscape:connector-curvature="0" />
    <path
       style="fill-rule:evenodd"
       id="path235"
       d="m 322.172,50.809 c 0.457,0.229 0.913,0.457 1.37,0.685 0,-0.686 0,-1.371 0,-2.057 2.577,1.942 5.756,2.666 8.914,2.743 -0.229,-0.229 -0.458,-0.458 -0.687,-0.686 1.835,0.202 3.693,0.172 5.486,0.686 -0.655,-3.068 9.046,1.496 11.656,2.057 -5.874,-1.651 -11.36,0.975 -17.143,0 -3.71,-0.625 -14.293,-1.192 -16.455,-4.114 2.866,0.579 2.808,0.477 4.8,-0.686 0.687,0.458 1.373,0.915 2.059,1.372"
       inkscape:connector-curvature="0" />
    <path
       style="fill:#ababab;fill-rule:evenodd"
       id="path237"
       d="m 210.412,124.172 c -10.248,-3.397 -19.209,-9.322 -30.651,-7.034 -3.158,0.631 -30.065,8.88 -22.829,13.205 -0.19,0.59 -1.48,-0.061 0,0.686 -5.538,-1.627 -9.44,4.317 -8.228,8.228 0.229,-0.457 0.457,-0.914 0.686,-1.371 -0.323,1.314 -0.259,2.788 -0.686,4.114 0.457,-0.686 0.914,-1.372 1.371,-2.057 1.011,2.785 -2.251,3.547 -1.986,6.198 0.297,2.966 0.588,5.928 0.958,8.886 0.657,5.256 0.712,11.165 1.5,16.943 1.625,11.91 -4.144,21.357 -9.832,31.396 -6.221,10.978 -13.936,20.886 -20.388,31.638 -7.067,11.778 -8.174,20.878 -0.42,30.411 2.325,1.036 4.322,1.923 6.17,3.429 -3.534,0.063 -6.71,-2.09 -8.913,-4.799 0.776,2.979 2.898,5.262 5.485,6.855 -0.743,-0.185 -2.564,-0.021 -4.114,-0.686 1.071,1.35 1.333,2.746 2.742,4.114 -0.718,-0.068 -1.411,0.404 -2.742,0 0.338,2.105 0.097,4.459 -0.686,6.171 0,-0.457 0,-0.915 0,-1.372 -3.276,2.967 -3.479,7.253 -6.856,10.285 4.524,-0.582 7.983,2.585 10.285,6.171 0.471,-2.563 1.615,-4.971 3.428,-6.856 0.901,1.707 0.165,3.811 -1.372,5.484 0.483,1.154 1.514,0.45 0,3.429 5.579,-1.787 10.35,-0.247 15.084,2.742 -0.311,-2.857 0.012,-6.867 2.742,-7.541 -1.972,6.848 0.461,4.011 5.485,3.428 1.059,-0.123 6.996,1.049 7.542,0.686 2.083,-1.384 0.559,-6.93 2.743,-5.485 0.394,-0.861 1.298,-2.114 2.057,-3.429 -0.015,0.685 -0.004,1.373 0,2.058 2.966,-8.068 0.867,-11.042 -3.686,-17.871 -1.566,-2.35 -1.643,-16.434 -7.285,-8.183 -0.229,-0.229 -0.457,-0.458 -0.686,-0.687 2.985,-2.44 5.57,-5.763 6.171,-9.599 -1.869,2.92 -6.545,6.552 -9.599,5.485 9.588,-6.712 17.73,-17.254 25.369,-26.308 8.93,-10.585 20.295,-21.581 26.74,-34.029 6.238,-12.049 7.917,-26.841 10.208,-40.012 1.257,-7.212 11.362,-29.706 4.193,-34.723"
       inkscape:connector-curvature="0" />
    <path
       style="fill-rule:evenodd"
       id="path239"
       d="m 178.187,209.191 c -1.786,8.162 -8.018,14.073 -13.713,19.884 -4.864,4.962 -11.633,13.079 -17.141,16.456 1.388,-6.902 13.118,-15.414 16.884,-22.005 1.624,-2.843 12.159,-14.92 13.97,-14.335"
       inkscape:connector-curvature="0" />
    <path
       style="fill:#838383;fill-rule:evenodd;stroke:#000000;stroke-width:0;stroke-linecap:square;stroke-miterlimit:10"
       id="path241"
       d="m 169.273,221.533 c -3.746,4.494 -7.222,8.541 -11.656,12.342 3.069,-3.507 6.82,-7.193 8.228,-11.655 2.317,0.78 3.586,-1.688 4.114,-4.114 1.797,-0.299 4.1,-2.797 5.486,-5.485 -1.364,3.554 -3.734,6.068 -6.172,8.912"
       inkscape:connector-curvature="0" />
    <path
       style="fill-rule:evenodd"
       id="path243"
       d="m 169.273,168.739 c -1.138,14.785 -6.936,26.507 -15.77,38.396 1.646,-5.446 7.462,-10.945 6.856,-16.455 0.123,0.037 1.331,0.683 1.371,0.686 -0.166,-1.547 0.331,-3.286 0,-4.8 0.22,0.36 0.978,1.115 1.372,2.057 0.193,-1.434 0.654,-2.656 0.686,-4.113 0.826,0.763 0.332,-0.035 0.686,1.371 1.525,-1.909 1.871,-4.427 1.371,-6.855 0.229,0.229 0.458,0.456 0.686,0.685 1.084,-3.335 2.831,-8.284 1.371,-11.655 1.056,-0.17 0.625,0.389 1.371,0.683"
       inkscape:connector-curvature="0" />
    <path
       style="fill-rule:evenodd"
       id="path245"
       d="m 128.135,275.699 c -1.611,1.712 -3.857,1.79 -5.485,0 1.929,0.637 3.996,0.177 5.485,0"
       inkscape:connector-curvature="0" />
    <path
       style="fill-rule:evenodd"
       id="path247"
       d="m 124.021,278.442 c 1.689,0.527 3.36,1.39 4.799,2.057 -3.943,0.764 -7.069,-1.288 -9.599,-4.114 0.229,-0.229 0.458,-0.457 0.686,-0.686 1.355,0.903 2.839,1.732 4.114,2.743"
       inkscape:connector-curvature="0" />
    <path
       style="fill-rule:evenodd"
       id="path249"
       d="m 147.333,269.528 c -1.875,0.747 -3.14,1.786 -4.114,0.686 2.051,0.103 3.918,-0.623 5.485,-2.057 -0.457,0.457 -0.914,0.914 -1.371,1.371"
       inkscape:connector-curvature="0" />
    <path
       style="fill-rule:evenodd"
       id="path251"
       d="m 150.761,273.641 c -1.983,2.261 -6.23,4.14 -9.6,4.801 1.091,-0.857 3.662,-2.163 5.485,-2.743 -2.265,0.452 -4.553,0.696 -6.856,0.686 3.683,-0.637 7.344,-1.918 10.971,-2.744"
       inkscape:connector-curvature="0" />
    <path
       style="fill-rule:evenodd"
       id="path253"
       d="m 150.761,276.384 c -3.341,2.831 -8.011,5.065 -12.342,5.484 3.483,-2.785 8.604,-3.293 12.342,-5.484"
       inkscape:connector-curvature="0" />
    <path
       style="fill-rule:evenodd"
       id="path255"
       d="m 55.457,78.92 c -0.326,1.229 0,2.831 0,4.114 6.26,-0.835 11.441,-2.865 17.827,-1.372 -4.271,-2.634 -11.881,-1.908 -16.456,0 2.3,-3.345 7.55,-3.77 11.656,-3.428 -4.236,-2.168 -8.537,0.938 -13.027,0.686"
       inkscape:connector-curvature="0" />
    <path
       style="fill-rule:evenodd"
       id="path257"
       d="m 102.766,116.63 c 5.901,-3.182 8.672,-16.843 5.486,-22.626 0.317,2.616 0.495,5.63 -2.057,6.171 1.815,3.229 0.874,6.284 -0.686,9.6 -0.885,-3.216 0.819,-8.669 -3.428,-8.914 1.673,3.118 2.338,6.596 2.057,10.285 0.046,-3.462 -0.469,-7.362 -4.114,-8.228 0.229,0.286 1.111,0.993 1.371,1.371 0.55,2.478 2.691,8.021 1.371,12.341"
       inkscape:connector-curvature="0" />
  </g>
</svg>
