<?xml version="1.0" encoding="UTF-8"?>
<svg viewBox="0 0 650 300" xmlns="http://www.w3.org/2000/svg">
 <g transform="translate(0 -752.36)" stroke="#000">
  <path d="m157.56 997.09s0.54405 13.057 28.834 7.6166 330.78-76.166 344.92-79.43 38.083-5.4404 30.466-21.218c-33.731 7.0725-404.22 93.031-404.22 93.031z" fill="#999"/>
  <path d="m75.499 902.91s-11.049-1.3811-11.049 11.049v28.313s2.0717 6.2151 6.2151 10.358 33.814 34.171 46.958 44.196 18.604 13.344 31.339 11.349c28.533-4.4682 438.49-103.89 438.24-103.89 0 0 8.2868 2.0717 8.2868-6.2151v-29.004s2.0717-11.049-4.834-17.955-47.649-38.672-54.555-43.506-11.74-2.7623-24.86 1.3811-368.76 82.868-368.76 82.868l-37.981 6.2151z" fill="#c87137"/>
  <path d="m70.512 912.22s54.404 54.404 66.917 58.213 33.187 1.0881 52.228-3.8083 389.53-96.295 396.06-100.1 7.6166-10.337 0-19.586-51.14-40.259-55.492-41.347-435.23 96.295-435.23 96.295-34.275 1.0881-24.482 10.337z" fill="#d38d5f"/>
  <path d="m187.22 961.46s-48.193 9.1238-72.363-17.808-16.574-38.672-0.69056-46.268c-2.6928-10.289 12.287-20.443 30.932-24.587s312.29-69.126 312.29-69.126 20.708-10.563 44.878 8.0826l6.2151 2.7623s31.075-2.0717 47.649 8.2868 26.932 20.717 13.811 37.981c0 2.0717 3.4528 10.358-8.2868 13.121s-374.43 87.555-374.43 87.555z" fill="#ccc"/>
  <path d="m117.3 901.89s45.3 39.484 52.373 44.924 29.369 9.4846 57.115 2.9561 333.36-76.715 336.63-78.891 14.689-5.9845-4.8964-20.674-46.788-33.187-46.788-33.187" fill="none"/>
  <path d="m120.56 924.74c5.9845-3.2643 19.586 0 14.145 9.2487s-23.394 2.1762-14.145-9.2487z" fill="#999"/>
  <path d="m123.83 927.46c-2.1762 1.0881 0 6.5285 3.2642 4.3523s1.6321-5.4404-3.2642-4.3523z" fill="#ccc"/>
  <path d="m542.74 827.35c-5.9845 3.8083 1.0881 13.057 9.7928 8.7047s-0.54404-12.513-9.7928-8.7047z" fill="#999"/>
  <path d="m544.37 830.07c-3.2643 1.6321 0 5.4404 6.5285 2.1762s-3.2642-4.3523-6.5285-2.1762z" fill="#b3b3b3"/>
 </g>
 <g transform="matrix(.99774 -.0654 .06705 .95484 -48.878 -223.23)">
  <path d="m210.54 474.05 0.54405 14.145 33.731-6.5285 0.54404-14.145z" fill="#803300" stroke="#000"/>
  <path d="m240.87 481.84-12.41-10.182 16.228-4.1365 0.63639 13.682z" fill="#520"/>
 </g>
 <g transform="matrix(.9973 -.0714 .07332 .95441 -12.693 -231.15)">
  <path d="m210.54 474.05 0.54405 14.145 33.731-6.5285 0.54404-14.145z" fill="#803300" stroke="#000"/>
  <path d="m240.87 481.84-12.41-10.182 16.228-4.1365 0.63639 13.682z" fill="#520"/>
 </g>
 <g transform="matrix(.99696 -.07563 .07774 .95408 22.319 -239.2)">
  <path d="m210.54 474.05 0.54405 14.145 33.731-6.5285 0.54404-14.145z" fill="#803300" stroke="#000"/>
  <path d="m240.87 481.84-12.41-10.182 16.228-4.1365 0.63639 13.682z" fill="#520"/>
 </g>
 <g transform="matrix(.99989 -.01458 .01395 .95696 89.904 -264.99)">
  <path d="m211.2 475.65 1.1344 14.11 33.428-7.9318-0.0473-14.155z" fill="#803300" stroke="#000"/>
  <path d="m240.87 481.84-12.41-10.182 16.228-4.1365 0.63639 13.682z" fill="#520"/>
 </g>
 <g transform="matrix(.99908 -.04217 .04278 .95614 116.34 -267.14)">
  <path d="m210.54 474.05 0.54405 14.145 33.731-6.5285 0.54404-14.145z" fill="#803300" stroke="#000"/>
  <path d="m240.87 481.84-12.41-10.182 16.228-4.1365 0.63639 13.682z" fill="#520"/>
 </g>
 <g transform="matrix(.99897 -.04466 .04524 .95603 153.59 -275.52)">
  <path d="m210.54 474.05 0.54405 14.145 33.731-6.5285 0.54404-14.145z" fill="#803300" stroke="#000"/>
  <path d="m240.87 481.84-12.41-10.182 16.228-4.1365 0.63639 13.682z" fill="#520"/>
 </g>
 <g transform="matrix(.99884 -.04711 .04795 .95591 188.87 -283.43)">
  <path d="m211.81 473.59-0.71798 14.601 33.731-6.5285 0.54404-14.145z" fill="#803300" stroke="#000"/>
  <path d="m240.87 481.84-12.41-10.182 16.228-4.1365 0.63639 13.682z" fill="#520"/>
 </g>
 <g transform="matrix(.92364 -.0594 -.01252 .95795 270.43 -290.87)">
  <path d="m210.54 474.05 0.54405 14.145 33.731-6.5285 0.54404-14.145z" fill="#803300" stroke="#000"/>
  <path d="m240.87 481.84-12.41-10.182 16.228-4.1365 0.63639 13.682z" fill="#520"/>
 </g>
 <g transform="matrix(.8926 -.02768 -.06426 .95655 338.22 -306.31)">
  <path d="m210.54 474.05 0.54405 14.145 34.546-6.7639-0.27166-13.91z" fill="#803300" stroke="#000"/>
  <path d="m240.87 481.84-12.41-10.182 16.228-4.1365 0.63639 13.682z" fill="#520"/>
 </g>
 <g transform="matrix(.81114 -.02136 -.03071 .95765 374.24 -317.1)">
  <path d="m210.54 474.05 0.54405 14.145 33.731-6.5285 0.54404-14.145z" fill="#803300" stroke="#000"/>
  <path d="m240.87 481.84-12.41-10.182 16.228-4.1365 0.63639 13.682z" fill="#520"/>
 </g>
 <g transform="matrix(.99774 -.05622 .06705 .8209 -47.741 -146.24)">
  <path d="m210.54 474.05 0.54405 14.145 33.731-6.5285 0.54404-14.145z" fill="#803300" stroke="#000"/>
  <path d="m240.87 481.84-12.41-10.182 16.228-4.1365 0.63639 13.682z" fill="#520"/>
 </g>
 <g transform="matrix(.9973 -.0714 .07332 .95441 -11.06 -215.45)">
  <path d="m210.54 474.05 0.54405 14.145 33.731-6.5285 0.54404-14.145z" fill="#803300" stroke="#000"/>
  <path d="m240.87 481.84-12.41-10.182 16.228-4.1365 0.63639 13.682z" fill="#520"/>
 </g>
 <g transform="matrix(.99857 -.07563 .05745 .95408 33.282 -223.75)">
  <path d="m210.54 474.05 0.54405 14.145 33.731-6.5285 0.54404-14.145z" fill="#803300" stroke="#000"/>
  <path d="m240.87 481.84-12.41-10.182 16.228-4.1365 0.63639 13.682z" fill="#520"/>
 </g>
 <g transform="matrix(.99989 -.01458 .01395 .95696 91.289 -249.04)">
  <path d="m211.2 475.65 1.1344 14.11 33.428-7.9318-0.0473-14.155z" fill="#803300" stroke="#000"/>
  <path d="m240.87 481.84-12.41-10.182 16.228-4.1365 0.63639 13.682z" fill="#520"/>
 </g>
 <g transform="matrix(.99908 -.04217 .04278 .95614 116.98 -250.2)">
  <path d="m210.54 474.05 0.54405 14.145 33.731-6.5285 0.54404-14.145z" fill="#803300" stroke="#000"/>
  <path d="m240.87 481.84-12.41-10.182 16.228-4.1365 0.63639 13.682z" fill="#520"/>
 </g>
 <g transform="matrix(.99897 -.04466 .04524 .95603 154.23 -258.83)">
  <path d="m210.54 474.05 0.54405 14.145 33.731-6.5285 0.54404-14.145z" fill="#803300" stroke="#000"/>
  <path d="m240.87 481.84-12.41-10.182 16.228-4.1365 0.63639 13.682z" fill="#520"/>
 </g>
 <g transform="matrix(.99884 -.04711 .04795 .95591 189.76 -266.74)">
  <path d="m210.54 474.05-0.18586 13.85 34.733-6.7383 0.27178-13.64z" fill="#803300" stroke="#000"/>
  <path d="m240.87 481.84-12.41-10.182 16.228-4.1365-0.0935 13.387z" fill="#520"/>
 </g>
 <g transform="matrix(.92364 -.0594 -.01252 .95795 271.07 -274.18)">
  <path d="m210.54 474.05 0.53389 13.369 33.19-6.8206 0.29665-12.609z" fill="#803300" stroke="#000"/>
  <path d="m238.47 482.73-10.008-11.068 16.228-4.1365 0.63639 13.682z" fill="#520"/>
 </g>
 <g transform="matrix(.8926 -.02768 -.06426 .95655 338.87 -289.62)">
  <path d="m210.54 474.05 0.19118 13.099 34.083-5.4823-0.0309-14.421z" fill="#803300" stroke="#000"/>
  <path d="m240.87 481.84-12.41-10.182 16.228-4.1365 0.63639 13.682z" fill="#520"/>
 </g>
 <g transform="matrix(.81114 -.02136 -.03071 .95765 373.64 -299.91)">
  <path d="m210.54 474.05 0.54405 14.145 33.731-6.5285 0.54404-14.145z" fill="#803300" stroke="#000"/>
  <path d="m240.87 481.84-12.41-10.182 16.228-4.1365 0.63639 13.682z" fill="#520"/>
 </g>
</svg>
