<?xml version="1.0" encoding="UTF-8" standalone="no"?>
<!-- Created with Inkscape (http://www.inkscape.org/) -->
<svg xmlns:rdf="http://www.w3.org/1999/02/22-rdf-syntax-ns#" xmlns="http://www.w3.org/2000/svg" xmlns:cc="http://creativecommons.org/ns#" xmlns:xlink="http://www.w3.org/1999/xlink" xmlns:dc="http://purl.org/dc/elements/1.1/" xmlns:svg="http://www.w3.org/2000/svg" xmlns:inkscape="http://www.inkscape.org/namespaces/inkscape" xmlns:sodipodi="http://sodipodi.sourceforge.net/DTD/sodipodi-0.dtd" xmlns:ns1="http://sozi.baierouge.fr" id="svg2" viewBox="0 0 800 600" version="1.1" inkscape:version="0.91 r13725">
  <defs id="defs4">
    <filter id="filter3830" color-interpolation-filters="sRGB">
      <feGaussianBlur id="feGaussianBlur3832" stdDeviation="1.7425893"/>
    </filter>
    <filter id="filter3858" color-interpolation-filters="sRGB">
      <feGaussianBlur id="feGaussianBlur3860" stdDeviation="1.1706299"/>
    </filter>
    <filter id="filter3905" color-interpolation-filters="sRGB">
      <feGaussianBlur id="feGaussianBlur3907" stdDeviation="0.88835114"/>
    </filter>
    <linearGradient id="linearGradient3915" y2="335.09" gradientUnits="userSpaceOnUse" x2="954.66" gradientTransform="matrix(1.1706 0 0 1.1706 -246.6 37.651)" y1="335.09" x1="106.4">
      <stop id="stop3911" style="stop-color:#999999" offset="0"/>
      <stop id="stop3913" style="stop-color:#999999;stop-opacity:0" offset="1"/>
    </linearGradient>
    <linearGradient id="linearGradient3961" y2="363.48" gradientUnits="userSpaceOnUse" x2="376.71" gradientTransform="translate(-152.36 96.887)" y1="317.16" x1="279.81">
      <stop id="stop3957" style="stop-color:#f9f9f9" offset="0"/>
      <stop id="stop3959" style="stop-color:#f9f9f9;stop-opacity:0" offset="1"/>
    </linearGradient>
    <linearGradient id="linearGradient3978" y2="356.39" gradientUnits="userSpaceOnUse" x2="315.98" gradientTransform="matrix(-1 0 0 -1 916.42 747.54)" y1="329.41" x1="223.09">
      <stop id="stop3957-8" style="stop-color:#f9f9f9" offset="0"/>
      <stop id="stop3959-1" style="stop-color:#f9f9f9;stop-opacity:0" offset="1"/>
    </linearGradient>
    <filter id="filter4021" color-interpolation-filters="sRGB">
      <feGaussianBlur id="feGaussianBlur4023" stdDeviation="0.40798127"/>
    </filter>
    <filter id="filter4025" color-interpolation-filters="sRGB">
      <feGaussianBlur id="feGaussianBlur4027" stdDeviation="0.37672075"/>
    </filter>
    <radialGradient id="radialGradient4045" gradientUnits="userSpaceOnUse" cy="394.62" cx="559.67" gradientTransform="matrix(.84492 -.25929 .016458 .053629 -63.877 550.65)" r="300.9">
      <stop id="stop4031" style="stop-color:#b3b3b3" offset="0"/>
      <stop id="stop4033" style="stop-color:#b3b3b3;stop-opacity:0" offset="1"/>
    </radialGradient>
  </defs>
  <g id="layer2" transform="translate(0 -144.09)">
    <path id="path3771-1" style="filter:url(#filter3905);stroke:#000000;stroke-width:1px;fill:#4d4d4d" d="m281.99 455.07c-9.3996 1.6019-18.972 2.2593-28.506 2.3755-6.7418 0.0822-13.714-2.8209-20.192-4.6894-8.6832-2.5044-10.485-4.292-18.211-8.9803-6.102-3.7028-16.529-10.393-23.361-12.461-6.4419-1.9504-13.569-1.2009-20.192 0-13.314 2.4143-76.139 9.9688-76.139 9.9688l-4.004 19.725-0.62474 5.9388 69.829 0.0984s14.397 18.008 13.645 26.936l-2.9569 35.098c-0.61015 7.2425-3.9074 8.0902-8.6653 13.651-5.3561 6.26-3.6528 5.478-9.8168 10.944-1.0237 0.90786-19.491 1.3494-34.368 1.2542-7.3743-0.0472-32.09-20.809-32.09-20.809l-3.8914 19.535v9.7322s54.682 25.754 84.332 34.215c5.7614 1.6442 13.26 1.5207 18.984-0.25065 5.0885-1.5748 14.218-10.325 18.129-13.941 8.0191-7.4152 9.171-8.4479 16.337-16.69 4.4692-5.1406 17.001-16.317 21.922-21.026 6.823-6.53 12.012-8.9313 18.38-12.502 26.864-15.066 83.226-36.55 83.226-36.55l143.54-44.14s15.922-4.9224 24.087-6.5064c9.7866-1.8987 19.785-2.4734 29.694-3.5633 7.9102-0.87004 15.801-0.85942 23.755-0.62475 10.02 0.2956 20.071 0.19369 29.694 3.0003 12.427 3.6244 23.04 12.442 35.633 15.441 6.5588 1.5622 13.601 2.6057 20.192 1.1878 9.1761-1.9738 16.554-6.8564 24.943-11.065 9.8134-4.9235 20.499-10.254 29.694-16.253 3.0571-1.9945 6.9748-3.731 8.3144-7.1266 1.3157-3.3351 4.2376-20.97 4.2376-20.97l-69.273 9.7166c-6.0994 0.85554-6.2689-2.1135-10.439-6.6459-4.5653-4.9616-8.0438-12.984-13.065-17.484-1.5534-1.3918-3.6369-23.209-1.9951-38.318s10.991-16.568 14.144-17.737c4.7158-1.7489 65.952-0.58359 65.952-0.58359l4.2787-19.607c0.40266-1.8452-30.309-3.8466-30.953-4.3069-10.743-7.6744-18.655 2.6994-41.279-1.6539-8.1738-1.5728-16.799-2.9069-24.943-1.1878-10.395 2.1942-20.5 7.2705-28.506 14.253-6.8694 5.9909-9.7737 15.429-15.441 22.568-4.0074 5.0478-8.5227 9.6812-13.065 14.253-5.3314 5.3658-9.9958 11.805-16.629 15.441z" transform="matrix(1.1706 0 0 1.1706 -68.244 -75.767)"/>
    <path id="path3771" style="stroke:url(#linearGradient3915);stroke-width:1.1706px;fill:#b3b3b3" d="m266.65 433.4c-11.003 1.8752-22.209 2.6447-33.37 2.7808-7.892 0.0963-16.054-3.3022-23.637-5.4894-10.165-2.9317-12.274-5.0243-21.318-10.512-7.143-4.3346-19.349-12.166-27.346-14.587-7.5409-2.2832-15.884-1.4058-23.637 0-15.585 2.8262-44.493 16.685-44.493 16.685l-49.324 18.075-0.73133 6.9521 81.742 0.11519s16.854 21.081 15.973 31.531l-3.4614 41.087c-0.71424 8.4782-4.5741 9.4704-10.144 15.98-6.2699 7.328-4.276 6.4126-11.492 12.811-1.1984 1.0628-22.816 1.5796-40.231 1.4682-17.265-0.11051-42.121-1.4923-42.121-1.4923v11.393s64.011 30.147 98.719 40.053c6.7443 1.9247 15.522 1.7801 22.223-0.2934 5.9566-1.8435 16.644-12.086 21.222-16.319 9.3872-8.6803 10.736-9.8892 19.124-19.538 5.2317-6.0176 19.902-19.1 25.662-24.614 7.987-7.6441 14.062-10.455 21.515-14.635 31.447-17.637 97.425-40.004 97.425-40.004l168.06-54.451s18.639-5.7623 28.196-7.6165c11.456-2.2226 23.16-2.8954 34.76-4.1712 9.2598-1.0185 18.497-1.006 27.808-0.73134 11.729 0.34604 23.496 0.22673 34.76 3.5122 14.547 4.2428 26.971 14.564 41.712 18.075 7.6778 1.8288 15.921 3.0502 23.637 1.3904 10.742-2.3106 19.378-8.0262 29.199-12.953 11.488-5.7635 23.996-12.003 34.76-19.026 3.5787-2.3348 8.1648-4.3676 9.7329-8.3425 1.5402-3.9041-1.3904-12.514-1.3904-12.514l-74.741-0.65909c-7.2096-0.0636-7.3384-2.4741-12.22-7.7797-5.3442-5.808-9.4162-15.2-15.295-20.466-1.8185-1.6293-4.2574-27.168-2.3355-44.855s12.866-19.395 16.557-20.763c5.5204-2.0472 77.204-0.68316 77.204-0.68316s-4.9816-6.1919-6.4901-7.2696c-12.576-8.9837-46.574-17.564-73.057-22.66-9.5684-1.8412-19.665-3.4029-29.199-1.3904-12.168 2.5685-23.997 8.5109-33.37 16.685-8.0414 7.013-11.441 18.061-18.075 26.418-4.6911 5.9091-9.9768 11.333-15.295 16.685-6.241 6.2812-11.701 13.819-19.466 18.075z"/>
    <path id="path3816" style="filter:url(#filter3830);stroke:#ffffff;stroke-width:1px;fill:none" d="m658.06 265.28c-2.1964 0.0972-4.3839 0.36583-6.5 0.8125-11.338 2.3934-22.502 7.9961-31.25 15.625-6.6959 5.8396-10.067 16.458-17.469 25.781-4.8858 6.1543-10.314 11.717-15.656 17.094-5.8854 5.9234-11.536 13.944-20.531 18.875a4.6912 4.6912 0 0 1 -0.84375 0.34375l-297.75 94.062a4.6912 4.6912 0 0 1 -0.625 0.15625c-11.314 1.9282-22.755 2.7055-34.094 2.8438-9.2821 0.11326-17.832-3.611-25.031-5.6875-10.567-3.0476-13.567-5.6172-22.438-11-7.2613-4.4063-19.674-12.103-26.25-14.094-6.3048-1.9089-13.928-1.2367-21.438 0.125-6.9691 1.2637-18.071 5.3262-27.125 9.0938-9.05 3.77-16.185 7.19-16.185 7.19a4.6912 4.6912 0 0 1 -0.40625 0.1875l-43.531 15.938 73.594 0.0937a4.6912 4.6912 0 0 1 3.6562 1.75s4.3552 5.4673 8.625 12.312c4.2698 6.8452 9.0475 14.58 8.375 22.562l-3.4688 41.094c-0.4149 4.9249-2.1141 8.6444-4.3125 11.312-2.1984 2.6681-4.4234 4.3741-6.9375 7.3125-3.0386 3.5514-3.9229 4.9263-5.2812 6.625-1.3584 1.6987-2.9716 3.3574-6.6562 6.625-1.3483 1.1957-1.8421 1.0822-2.3438 1.2188-0.50162 0.13652-0.93244 0.20716-1.4062 0.28125-0.94762 0.14819-2.0439 0.27158-3.3438 0.375-2.5997 0.20684-5.9994 0.37449-9.9062 0.5-7.8137 0.25102-17.609 0.33735-26.375 0.28125-14.531-0.093-31.192-0.92928-37.406-1.25v3.4375c4.4593 2.0851 62.807 29.317 95.312 38.594 5.6573 1.6145 13.913 1.4982 19.562-0.25 1.3855-0.42878 5.6693-3.211 9.5-6.4062 3.8307-3.1953 7.5648-6.7412 9.9062-8.9062 9.3932-8.6858 10.43-9.5498 18.781-19.156 5.8686-6.7503 20.369-19.608 25.938-24.938 8.4341-8.0719 15.217-11.259 22.5-15.344 32.413-18.178 98.188-40.344 98.188-40.344a4.6912 4.6912 0 0 1 0.06 -0.02l168.06-54.438a4.6912 4.6912 0 0 1 0.0625 0s18.431-5.7663 28.656-7.75c11.866-2.3021 23.747-2.9916 35.188-4.25 9.6052-1.0565 19.043-1.0272 28.438-0.75 11.602 0.34228 23.798 0.14703 35.938 3.6875 15.824 4.6152 28.2 14.863 41.5 18.031 7.3949 1.7614 14.942 2.7611 21.531 1.3438 9.6958-2.0856 17.961-7.4476 28.094-12.531 11.496-5.7676 23.878-11.973 34.312-18.781 4.0657-2.6525 7.2799-4.5373 7.9062-6.125-0.032 0.081 0.12631-2.7511-0.34375-5.0625-0.11854-0.5829-0.15403-0.55553-0.28125-1.0625l-71.156-0.65625c-4.1276-0.0364-7.5622-1.0388-9.9375-3s-3.4726-3.8741-5.6875-6.2812c-6.2437-6.7856-10.349-15.986-14.969-20.125-1.1512-1.0314-1.319-1.6981-1.5625-2.2812-0.24352-0.58317-0.3775-1.111-0.53125-1.6875-0.30749-1.1529-0.56901-2.4789-0.8125-4.0312-0.48697-3.1047-0.91207-7.0851-1.2188-11.594-0.61336-9.0173-0.76026-19.984 0.25-29.281 1.0626-9.7787 4.9342-16.053 9.3125-19.625 4.3783-3.5718 9.2622-4.6533 10.281-5.0312 2.3206-0.86062 3.615-0.74011 6.2188-0.90625s5.9022-0.26273 9.6875-0.34375c7.5705-0.16203 17.081-0.19836 26.406-0.15625 12.726 0.0575 18.378 0.20597 24.969 0.3125-5.8514-3.452-15.935-7.347-27.594-10.75-13.17-3.8441-28.154-7.2552-41.281-9.7812-7.0872-1.3638-14.228-2.4816-20.875-2.1875z" transform="translate(-.0000041294 -3.4574e-7)"/>
  </g>
  <g id="layer3" transform="translate(0 -144.09)">
    <path id="path3862" style="opacity:.85650;filter:url(#filter3858);stroke:#333333;stroke-width:3.586;fill:#4d4d4d" d="m585.69 345.75-9.4062 8.4375a9.9252 9.9252 0 0 1 -3.6562 2.0938l-306.53 96.41a9.9252 9.9252 0 0 1 -2.09 0.4l-31.969 2.7812a9.9252 9.9252 0 0 1 -4.25 -0.5625l-9.5-3.4375c7.8182 21.017 7.6584 44.008 3.9375 65.031l0.9375-0.78125a9.9252 9.9252 0 0 1 1.2188 -0.84375l31.5-18.531a9.9252 9.9252 0 0 1 2.0938 -0.90625l301.25-93.094a9.9252 9.9252 0 0 1 3.0938 -0.46875l46 0.65625c-7.3438-9.0422-15.393-19.669-19.219-30.562-2.9181-8.3092-3.3432-17.757-3.4062-26.625z" transform="translate(.0000041294 3.4574e-7)"/>
    <path id="rect3835" style="opacity:.85650;filter:url(#filter3858);stroke:#cccccc;stroke-width:3.586;fill:url(#radialGradient4045)" d="m283.07 443.33 261.87-82.341 22.722-20.441s-2.4743 27.039 1.8895 39.465c5.1414 14.64 27.335 37.679 27.335 37.679l-58.366-0.82243-257.34 79.51-26.9 15.823-27.551 22.338s10.737-17.242 12.656-26.992c3.5007-17.784 3.7302-37.364-2.7035-54.309-3.0986-8.1611-16.386-20.429-16.386-20.429l35.46 12.915z" transform="matrix(1.1706 0 0 1.1706 -68.244 -75.767)"/>
    <path id="path3945" style="opacity:.9;filter:url(#filter4025);fill:url(#linearGradient3961)" d="m178.82 441.66c8.0771 8.7196 15.056 21.598 16.887 33.342 1.3438 8.6148-0.86603 26.951-0.86603 26.951l23.789-8.8721 14.316-16.347s-5.9749-23.958-13.423-33.342c-7.344-9.2524-19.935-18.187-32.476-21.651-4.2486-1.1732-8.9183-0.36785-13.207 0.64952-4.6842 1.1112-20.553 9.5189-20.553 9.5189s19.826 3.5895 25.533 9.7502z" transform="matrix(1.1706 0 0 1.1706 -68.244 -75.767)"/>
    <path id="path3945-2" style="opacity:.9;filter:url(#filter4021);fill:url(#linearGradient3978)" d="m638.6 405.84c-8.0771-8.7196-20.421-22.671-22.253-34.415-1.3438-8.6148-2.3531-7.3023-2.3531-7.3023l-17.998-0.4919-16.887 6.0622s5.9749 23.958 13.423 33.342c7.344 9.2524 20.26 17.174 32.476 21.651 8.2174 3.0111 17.527 4.838 26.083 2.9988 10.868-2.3362 28.64-17.087 28.64-17.087s-35.424 1.4032-41.131-4.7575z" transform="matrix(1.1706 0 0 1.1706 -68.244 -75.767)"/>
  </g>
  <metadata>
    <rdf:RDF>
      <cc:Work>
        <dc:format>image/svg+xml</dc:format>
        <dc:type rdf:resource="http://purl.org/dc/dcmitype/StillImage"/>
        <cc:license rdf:resource="http://creativecommons.org/licenses/publicdomain/"/>
        <dc:publisher>
          <cc:Agent rdf:about="http://openclipart.org/">
            <dc:title>Openclipart</dc:title>
          </cc:Agent>
        </dc:publisher>
        <dc:title>Small Wrench</dc:title>
        <dc:date>2013-02-03T19:41:11</dc:date>
        <dc:description>A small Wrench</dc:description>
        <dc:source>https://openclipart.org/detail/174793/small-wrench-by-lindsaybradford-174793</dc:source>
        <dc:creator>
          <cc:Agent>
            <dc:title>LindsayBradford</dc:title>
          </cc:Agent>
        </dc:creator>
        <dc:subject>
          <rdf:Bag>
            <rdf:li>tool</rdf:li>
            <rdf:li>wrench</rdf:li>
          </rdf:Bag>
        </dc:subject>
      </cc:Work>
      <cc:License rdf:about="http://creativecommons.org/licenses/publicdomain/">
        <cc:permits rdf:resource="http://creativecommons.org/ns#Reproduction"/>
        <cc:permits rdf:resource="http://creativecommons.org/ns#Distribution"/>
        <cc:permits rdf:resource="http://creativecommons.org/ns#DerivativeWorks"/>
      </cc:License>
    </rdf:RDF>
  </metadata>
</svg>
